<?xml version="1.0" encoding="UTF-8" standalone="no"?>
<!-- Generator: Adobe Illustrator 19.0.0, SVG Export Plug-In . SVG Version: 6.00 Build 0)  -->

<svg
   xmlns:dc="http://purl.org/dc/elements/1.1/"
   xmlns:cc="http://creativecommons.org/ns#"
   xmlns:rdf="http://www.w3.org/1999/02/22-rdf-syntax-ns#"
   xmlns:svg="http://www.w3.org/2000/svg"
   xmlns="http://www.w3.org/2000/svg"
   xmlns:sodipodi="http://sodipodi.sourceforge.net/DTD/sodipodi-0.dtd"
   xmlns:inkscape="http://www.inkscape.org/namespaces/inkscape"
   version="1.1"
   id="Capa_1"
   x="0px"
   y="0px"
   viewBox="0 0 511.999 511.999"
   style="enable-background:new 0 0 511.999 511.999;"
   xml:space="preserve"
   sodipodi:docname="yo.svg"
   inkscape:export-filename="D:\Escritorio\Estilos\1ยบ\img\yo.png"
   inkscape:export-xdpi="79.260582"
   inkscape:export-ydpi="79.260582"
   inkscape:version="0.92.5 (2060ec1f9f, 2020-04-08)"><metadata
   id="metadata4018"><rdf:RDF><cc:Work
       rdf:about=""><dc:format>image/svg+xml</dc:format><dc:type
         rdf:resource="http://purl.org/dc/dcmitype/StillImage" /></cc:Work></rdf:RDF></metadata><defs
   id="defs4016" /><sodipodi:namedview
   pagecolor="#ffffff"
   bordercolor="#666666"
   borderopacity="1"
   objecttolerance="10"
   gridtolerance="10"
   guidetolerance="10"
   inkscape:pageopacity="0"
   inkscape:pageshadow="2"
   inkscape:window-width="1366"
   inkscape:window-height="705"
   id="namedview4014"
   showgrid="false"
   inkscape:zoom="0.92187681"
   inkscape:cx="247.9143"
   inkscape:cy="225.60492"
   inkscape:window-x="-8"
   inkscape:window-y="-8"
   inkscape:window-maximized="1"
   inkscape:current-layer="Capa_1" />
<path
   style="fill:#803300;stroke-width:1.68640244"
   d="m 443.33027,241.55414 v -54.31393 c 0,-104.655694 -74.38355,-166.413232 -165.0871,-171.335892 -96.84238,-5.25577 -172.18834,55.388329 -172.18834,165.846562 v 59.80326 c 0,100.61655 -14.50673,159.43493 -21.825276,182.70662 -2.181911,6.9359 0.433558,14.61408 6.085442,18.07931 25.849764,15.84882 96.278464,56.39234 158.433544,68.33055 h 51.88802 c 62.15508,-11.94001 132.58376,-52.48355 158.43355,-68.33055 5.65188,-3.46523 8.26575,-11.14341 6.08542,-18.07931 -7.31854,-23.27169 -21.82526,-82.09007 -21.82526,-182.70662 z"
   id="path3951"
   inkscape:connector-curvature="0"
   sodipodi:nodetypes="sssssccccccs" />
<path
   style="fill:#552200;stroke-width:1.15362871"
   d="m 112.87678,105.32979 -7.31077,30.13364 c -13.283345,54.75158 -30.496836,211.20761 -36.662375,224.13543 -1.843427,3.86478 28.736813,-54.34557 33.512845,-52.41669 20.31624,8.20421 63.03167,-31.92518 112.43273,-23.84867 V 118.85386 L 206.47577,95.956926 C 198.16783,73.239047 183.42012,46.668448 185.82334,26.349984 154.65949,46.153552 120.23851,74.986124 112.87678,105.32979 Z"
   id="path3953"
   inkscape:connector-curvature="0"
   sodipodi:nodetypes="ssccccscs" />
<rect
   x="186.26367"
   y="224.31125"
   style="fill:#e6af78;stroke-width:1.25296867"
   width="126.5294"
   height="110.00349"
   id="rect3955" />
<path
   style="fill:#00112b;stroke-width:1.32509398"
   d="m 461.62602,303.57308 -147.61731,-19.15691 -28.40042,24.50854 -16.52832,14.82331 c -5.60199,5.02376 -17.94725,5.02376 -23.54924,0 L 229.00239,308.92471 182.84507,283.54056 54.525255,303.57308 C 23.091437,311.93098 3.1974604,330.80465 4.15026,351.36587 L 11.585867,511.999 H 504.56541 l 7.4356,-160.63313 c 0.95109,-20.56225 -18.94117,-39.43489 -50.37499,-47.79279 z"
   id="path3957"
   inkscape:connector-curvature="0"
   sodipodi:nodetypes="ccccccccccccc" />
<g
   id="g3963"
   style="fill:#00112b"
   transform="matrix(1.7136683,0,0,1.024629,-181.39202,-12.610023)">
	<path
   style="fill:#00112b"
   d="m 163.509,371.612 -41.486,-51.857 c -8.932,9.378 -14.123,22.013 -13.751,35.472 l 4.339,156.772 h 50.898 z"
   id="path3959"
   inkscape:connector-curvature="0" />
	<path
   style="fill:#00112b"
   d="m 349.388,371.612 41.486,-51.857 c 8.932,9.378 14.124,22.013 13.751,35.472 l -4.339,156.772 h -50.898 z"
   id="path3961"
   inkscape:connector-curvature="0" />
</g>
<path
   style="fill:#d29b6e;stroke-width:1.24644351"
   d="m 186.26367,248.88885 c 19.15828,5.94485 40.37871,9.2677 62.60748,9.2677 22.23025,0 43.4507,-3.32182 62.60746,-9.2677 V 224.31123 H 186.26367 Z"
   id="path3965"
   inkscape:connector-curvature="0" />
<path
   style="fill:#f0c087;stroke-width:1.18896711"
   d="m 364.0936,189.69497 c 2.75541,-7.29636 -1.97174,66.81754 -1.73879,59.16182 1.57766,-51.9134 -78.2896,-121.49329 -149.06427,-160.794251 -4.931,-2.738321 -11.50306,-1.865599 -14.87324,2.224942 -11.18339,13.579109 -23.8409,24.315029 -31.30471,30.109519 -3.96292,3.07692 -9.10486,4.77214 -14.49014,4.77214 h -7.6903 c -0.006,0 -0.0101,0.003 -0.0171,0.003 -1.17255,0.0185 -2.37229,0.12231 -3.59277,0.32223 -10.40168,1.69956 -17.40343,10.09913 -17.40343,19.04044 v 6.52522 c 0,8.62894 6.54618,16.76962 16.50266,18.72914 2.2416,0.44129 4.42237,0.56581 6.51125,0.42599 5.31409,-0.35826 9.95388,2.90545 10.91029,7.33131 9.08678,42.02727 52.59342,73.90407 105.01731,73.90407 44.55238,0 82.578,-23.05999 98.59662,-55.7702 0.77265,-1.59253 2.4836,-5.59787 2.63633,-5.98564 z"
   id="path3967"
   inkscape:connector-curvature="0"
   sodipodi:nodetypes="cccccssccsscccsccc" />

<path
   style="fill:#000000;stroke-width:0.99561"
   d="M 432.59765,511.999 H 81.084339 c -4.416227,0 -7.988883,-3.78907 -7.988883,-8.46139 0,-4.67231 3.573616,-8.46138 7.988883,-8.46138 H 432.59863 c 4.4162,0 7.98888,3.78907 7.98888,8.46138 0,4.67232 -3.57362,8.46139 -7.98986,8.46139 z"
   id="path3971"
   inkscape:connector-curvature="0" />

<path
   style="fill:#37483e;stroke-width:1.32509398"
   d="M 414.58925,495.07623 H 100.02144 c -14.986034,0 -27.374142,-6.98387 -28.254967,-15.92888 L 60.944657,369.14831 C 59.988429,359.42765 72.91463,351.23164 89.19962,351.23164 h 336.20974 c 16.28499,0 29.21119,8.19601 28.25496,17.91667 l -10.82181,109.99904 c -0.87911,8.94398 -13.26722,15.92888 -28.25326,15.92888 z"
   id="path3979"
   inkscape:connector-curvature="0" />
<ellipse
   style="fill:#ff0000;stroke-width:1.3226223"
   cx="256.75772"
   cy="427.38525"
   id="circle3981"
   rx="35.247044"
   ry="21.153336" />
<g
   id="g3983">
</g>
<g
   id="g3985">
</g>
<g
   id="g3987">
</g>
<g
   id="g3989">
</g>
<g
   id="g3991">
</g>
<g
   id="g3993">
</g>
<g
   id="g3995">
</g>
<g
   id="g3997">
</g>
<g
   id="g3999">
</g>
<g
   id="g4001">
</g>
<g
   id="g4003">
</g>
<g
   id="g4005">
</g>
<g
   id="g4007">
</g>
<g
   id="g4009">
</g>
<g
   id="g4011">
</g>
<path
   style="fill:#803300;stroke-width:1.01638627"
   d="m 360.22143,231.16707 c -0.44639,-2.27101 -2.54747,-7.82617 -4.66906,-12.34486 l -3.85743,-8.21577 2.58534,-3.03006 c 1.42194,-1.66653 4.34797,-6.10236 6.50229,-9.85741 l 3.91695,-6.82737 -0.69604,14.9325 c -0.38283,8.21287 -0.69772,18.20389 -0.69978,22.20226 -0.004,7.92004 -1.78591,9.73569 -3.08227,3.14071 z"
   id="path4035"
   inkscape:connector-curvature="0" /><path
   style="fill:#803300;stroke-width:1.01638627"
   d="m 415.87737,290.99362 c -14.09731,-3.80503 -27.22023,-7.19523 -29.16204,-7.53375 -1.94181,-0.33855 -10.61869,-4.23851 -19.2819,-8.66658 -16.90463,-8.64055 -20.39573,-9.84877 -26.38721,-9.13228 -5.11776,0.61199 -7.21201,1.87752 -17.94077,10.84125 l -9.09674,7.60021 -0.34963,-21.73223 -0.34962,-21.73219 10.2797,-6.10528 c 9.18259,-5.45366 16.90531,-11.51941 24.96185,-19.60613 l 2.67623,-2.68626 2.65118,5.43698 c 3.65634,7.49839 6.52536,16.78914 7.57274,24.52271 0.48497,3.58104 1.04363,6.41035 1.24143,6.28737 1.0621,-0.66036 3.23678,-57.34191 2.24083,-58.40598 -0.86728,-0.9266 -1.73313,-0.0135 -3.41344,3.60034 -2.67625,5.75548 -9.01049,15.68012 -10.00503,15.6761 -0.38614,-0.002 -2.7085,-3.09612 -5.16082,-6.8768 -14.21621,-21.91698 -41.41085,-48.75314 -73.86493,-72.89131 -24.35541,-18.11466 -62.38145,-41.460838 -70.135,-43.059521 -2.43824,-0.502749 -3.89564,-2.28406 -7.7161,-9.431054 -11.0839,-20.734869 -16.67333,-35.685863 -16.67333,-44.598905 0,-4.508041 0.0367,-4.550749 5.58633,-6.493123 23.79773,-8.329257 59.09791,-11.837141 89.01699,-8.845871 34.86687,3.485949 62.14022,12.215083 89.49134,28.642683 34.7451,20.868571 58.51114,50.210596 70.19933,86.669391 7.18236,22.40384 7.43526,25.30471 8.5191,97.71426 0.55641,37.17404 0.94854,67.61955 0.87133,67.65668 -0.0771,0.0371 -11.67452,-3.04568 -25.77182,-6.85071 z"
   id="path4037"
   inkscape:connector-curvature="0" /><path
   style="fill:#803300;stroke-width:1.01638627"
   d="m 415.27059,291.01919 c -14.43105,-3.84761 -27.44396,-7.2158 -28.91756,-7.48487 -1.47361,-0.26907 -9.48149,-3.92329 -17.7953,-8.12046 -17.32766,-8.74779 -19.24568,-9.46682 -25.25259,-9.46682 -6.28939,0 -9.03113,1.44742 -19.75411,10.42853 l -9.54232,7.99225 -0.34971,-21.88827 -0.34971,-21.88827 10.91169,-6.77365 c 11.2186,-6.9642 17.33485,-11.77927 23.45168,-18.4625 l 3.50506,-3.82962 2.1213,4.22257 c 2.54613,5.06824 6.78484,17.84034 8.44359,25.44245 l 1.20043,5.50144 0.0474,-8.25216 c 0.0299,-5.20504 -0.34114,-7.52667 -1.00492,-6.28736 l -1.0524,1.9648 -0.1311,-2.08754 c -0.072,-1.14813 -1.97486,-6.39193 -4.22846,-11.65289 l -4.09745,-9.56538 3.42253,-4.85143 c 4.67699,-6.62962 8.73563,-13.87519 8.61961,-15.38792 -0.0528,-0.68878 -1.23043,0.69284 -2.61691,3.07024 -6.81509,11.68581 -9.46409,15.71841 -10.32537,15.71841 -0.51791,0 -2.9385,-3.09456 -5.37908,-6.87681 -13.52574,-20.96148 -41.8756,-48.96374 -73.15328,-72.25642 C 248.4343,111.90076 209.37448,87.834878 201.95305,86.426488 200.03804,86.063086 198.05744,83.337535 193.80351,75.211814 182.94864,54.477131 177.29421,38.444017 178.19599,30.956752 l 0.42594,-3.536643 11.34552,-3.361816 c 16.2303,-4.809225 33.54894,-7.323221 53.71897,-7.797918 43.48979,-1.023541 81.31684,7.943953 114.82294,27.220562 43.02119,24.750808 68.78791,60.078133 79.14222,108.507593 1.6935,7.9209 2.30344,22.99352 3.14853,77.80615 0.5765,37.39018 0.97177,68.03569 0.87842,68.10114 -0.0933,0.0655 -11.97694,-3.02904 -26.40798,-6.87663 z m -50.98903,-86.13478 c -0.23279,-4.67025 -0.42413,-1.06441 -0.4252,8.01298 -10e-4,9.07739 0.18939,12.89848 0.42326,8.49136 0.23386,-4.40714 0.23474,-11.83409 10e-4,-16.50434 z"
   id="path4039"
   inkscape:connector-curvature="0" /><path
   style="fill:#803300;stroke-width:1.01638627"
   d="m 361.64275,238.52681 c -0.35717,-0.81667 -0.13949,-1.96608 0.48379,-2.55424 0.77046,-0.72708 1.13965,-0.25175 1.15333,1.48484 0.0224,2.85947 -0.65937,3.30492 -1.63712,1.0694 z"
   id="path4041"
   inkscape:connector-curvature="0" /><path
   style="fill:#803300;stroke-width:1.01638627"
   d="m 362.08933,241.12505 c 0.063,-0.91555 0.37454,-1.1018 0.79415,-0.47484 0.37969,0.56735 0.333,1.24519 -0.10386,1.50635 -0.43678,0.26117 -0.74744,-0.20303 -0.69038,-1.03151 z"
   id="path4043"
   inkscape:connector-curvature="0" /><path
   style="fill:#803300;stroke-width:1.01638627"
   d="m 421.79232,292.75645 c -10.84408,-2.89261 -23.85697,-6.28565 -28.91756,-7.54005 -6.50723,-1.61302 -13.43416,-4.38114 -23.65981,-9.45489 -18.74681,-9.30175 -20.08585,-9.81447 -25.63147,-9.81447 -6.58579,0 -9.21634,1.36942 -20.03245,10.42853 l -9.54232,7.99225 -0.34977,-21.91218 -0.34978,-21.91216 9.59877,-5.96384 c 11.84534,-7.35966 16.62342,-11.01361 23.19643,-17.73903 l 5.12166,-5.2404 1.99449,4.18524 c 4.13022,8.6669 5.08635,11.34068 7.36868,20.60637 l 2.34357,9.51423 -0.0562,-6.88774 c -0.0308,-3.78828 -0.53066,-6.44076 -1.11068,-5.89441 -0.68365,0.64393 -1.06169,0.25906 -1.07472,-1.09419 -0.0101,-1.14813 -1.84722,-6.35283 -4.08033,-11.56598 l -4.06022,-9.47844 5.27565,-8.08204 c 5.18492,-7.94306 7.89727,-13.1959 6.39623,-12.38723 -0.41892,0.22569 -3.1204,4.41422 -6.00331,9.30783 -5.12913,8.70648 -6.22423,10.13503 -7.26059,9.47141 -0.28123,-0.1801 -3.27673,-4.39461 -6.65667,-9.36555 C 326.48813,173.73044 292.8473,142.92413 251.84164,115.25999 235.4242,104.18407 209.37993,88.957482 203.75416,87.14598 199.261,85.699195 198.59136,84.981286 194.23342,76.938859 191.65523,72.180868 187.1709,62.806186 184.26827,56.106208 179.8851,45.988817 178.95949,42.525983 178.80634,35.672271 l -0.18443,-8.252162 11.34552,-3.361816 c 16.0387,-4.752449 33.47852,-7.279282 53.71897,-7.783311 43.28709,-1.077908 80.9914,7.864432 114.75255,27.215895 37.51015,21.500338 61.34679,50.451129 74.44859,90.421483 6.41084,19.55791 6.79384,24.20046 7.90972,95.88232 0.58208,37.39018 0.98029,68.03589 0.88491,68.10161 -0.0955,0.0657 -9.04582,-2.24725 -19.88992,-5.13984 z m -57.51779,-84.34731 c -0.25741,-2.71854 -0.47013,-0.69884 -0.47273,4.48825 -0.004,5.18708 0.208,7.41133 0.46801,4.94281 0.26001,-2.46854 0.26213,-6.71252 0.005,-9.43106 z"
   id="path4045"
   inkscape:connector-curvature="0" /><path
   style="fill:#803300;stroke-width:1.01638627"
   d="m 417.1918,291.6223 c -13.37437,-3.55475 -26.38727,-6.95831 -28.91756,-7.56348 -2.53028,-0.60516 -11.10696,-4.32519 -19.05929,-8.26677 -18.98495,-9.40986 -20.12466,-9.84501 -25.78493,-9.84501 -6.03661,0 -9.51665,1.8951 -20.92662,11.39585 l -8.49469,7.07328 -0.34963,-21.88641 -0.34962,-21.88639 10.77148,-6.79971 c 9.88437,-6.23969 25.92742,-19.48871 26.18148,-21.62173 0.0588,-0.49301 0.96045,0.1646 2.00389,1.46138 l 1.89715,2.35775 -0.78126,-2.51981 c -0.58296,-1.8802 0.74348,-4.91597 5.22547,-11.95932 3.30371,-5.19173 5.98214,-9.89326 5.95204,-10.44787 -0.0302,-0.55461 -2.75141,3.32401 -6.04734,8.61915 -3.29595,5.29515 -6.4311,9.62753 -6.96701,9.62753 -0.53593,0 -2.63168,-2.56406 -4.65725,-5.69791 -16.33495,-25.27248 -48.70838,-55.93406 -88.27637,-83.60841 -15.61943,-10.92444 -52.57942,-32.853803 -56.6854,-33.633003 -2.27192,-0.431147 -3.92318,-2.529613 -8.25492,-10.4907 C 183.17639,56.642466 179.06901,45.60636 178.83448,36.065224 l -0.21251,-8.645115 11.34551,-3.361816 c 29.37788,-8.704991 67.68504,-10.3619 102.06492,-4.414655 47.93008,8.291248 91.30813,33.243503 116.67297,67.113484 17.72314,23.665908 27.92247,50.386278 30.74906,80.556868 1.00434,10.72022 3.04126,131.03099 2.21475,130.81362 -0.0883,-0.0231 -11.10302,-2.95059 -24.47738,-6.50531 z m -54.29572,-52.78954 c -0.13057,-2.80965 -0.6846,-5.10847 -1.23118,-5.10847 -0.54657,0 -0.99377,-0.94311 -0.99377,-2.0958 0,-1.15268 -0.32734,-1.90005 -0.72742,-1.66087 -0.69453,0.41529 2.0368,13.97363 2.815,13.97363 0.20612,0 0.26793,-2.29881 0.13743,-5.10849 z m -3.98329,-12.37823 c -0.36465,-0.54034 -0.663,-0.0982 -0.663,0.98238 0,1.08066 0.29835,1.52274 0.663,0.98242 0.36463,-0.54032 0.36463,-1.42448 0,-1.9648 z m -1.28707,-3.09456 c -0.41959,-0.62697 -0.73106,-0.44074 -0.79412,0.47481 -0.0571,0.8285 0.25357,1.29268 0.69035,1.03153 0.43678,-0.26115 0.48349,-0.93902 0.10373,-1.50634 z m -1.31443,-3.14369 c -0.4196,-0.62695 -0.73106,-0.44074 -0.79412,0.47483 -0.0571,0.82848 0.25357,1.29266 0.69035,1.03151 0.43678,-0.26114 0.48348,-0.93902 0.10373,-1.50634 z m -1.31445,-3.14369 c -0.41958,-0.62695 -0.73104,-0.44072 -0.79411,0.47483 -0.0571,0.8285 0.25358,1.29268 0.69037,1.03153 0.43677,-0.26116 0.48346,-0.93902 0.10373,-1.50636 z m 9.23281,-5.54139 c -0.31441,-0.97763 -0.58359,-0.36285 -0.59817,1.36619 -0.0155,1.72903 0.24266,2.5289 0.57164,1.77748 0.32899,-0.7514 0.34091,-2.16607 0.0265,-3.14367 z"
   id="path4047"
   inkscape:connector-curvature="0" /><path
   style="fill:#803300;stroke-width:0.25409657"
   d="m 414.346,290.93971 -28.06889,-7.46312 -1.26608,0.3029 c -1.56276,0.37388 -1.51803,0.37499 -1.46271,-0.0367 0.0296,-0.21969 -4.18908,-2.51413 -11.94856,-6.4986 -21.69324,-11.13943 -22.20414,-11.3402 -28.51887,-11.20704 -3.79699,0.08 -5.3653,0.46216 -8.15593,1.98714 -2.67754,1.46318 -4.75308,3.05537 -13.76142,10.55666 -4.47722,3.72821 -8.19539,6.8154 -8.26257,6.86043 -0.0672,0.045 -0.11641,-10.16704 -0.10931,-22.69347 l 0.0137,-22.77533 2.36539,-1.08063 c 4.75406,-2.17191 12.98608,-7.43615 19.81751,-12.67299 6.62732,-5.08032 9.88811,-7.98812 13.95455,-12.44384 l 2.21164,-2.42337 0.91046,1.63745 c 2.10453,3.78501 2.69696,3.91112 0.99092,0.21093 l -1.17368,-2.5456 2.26747,-2.82769 c 3.19222,-3.98094 10.404,-15.70286 10.13847,-16.47891 -0.15321,-0.44769 -2.06898,2.40956 -4.21435,6.28535 -2.6436,4.77583 -8.22515,12.96552 -8.83647,12.96552 -0.11527,0 -0.76988,-0.95047 -1.4547,-2.11216 -14.06798,-23.86436 -41.70904,-51.898 -77.48612,-78.5867 -2.49493,-1.86115 -4.53625,-3.43054 -4.53625,-3.48754 0,-0.0569 36.66702,-0.10361 81.48226,-0.10361 h 81.48226 l 0.32373,0.7368 c 0.56793,1.29268 2.90393,8.66629 3.93704,12.42736 2.7103,9.86678 4.29196,18.88313 5.65259,32.22276 0.21676,2.12515 0.45432,21.48635 0.62196,50.6919 0.25123,43.76665 0.45532,54.36822 1.32352,68.74783 0.38994,6.45848 0.39896,7.29338 0.0785,7.27869 -0.13555,-0.007 -12.87746,-3.36972 -28.31534,-7.47443 z m -51.86524,-49.14334 c -0.32347,-0.73634 -0.17836,-1.39137 0.27143,-1.22517 0.16709,0.0618 0.30373,-0.0697 0.30373,-0.29231 0,-0.2225 -0.1244,-0.40456 -0.27658,-0.40456 -0.42265,0 -1.0381,-1.41444 -1.03581,-2.38054 9.7e-4,-0.47376 0.22577,-1.11792 0.49924,-1.43146 0.50092,-0.57431 0.34344,-1.59929 -0.16948,-1.10308 -0.36169,0.34991 -1.18109,-1.30548 -1.70044,-3.43532 -0.31901,-1.30816 -0.45857,-1.57808 -0.53637,-1.03725 -0.0577,0.40208 0.19461,1.99357 0.56101,3.53664 0.3664,1.54307 0.89749,4.13182 1.18021,5.75277 0.2827,1.62096 0.62006,3.25666 0.74967,3.6349 l 0.23566,0.68767 0.10056,-0.8287 c 0.0554,-0.45578 -0.0269,-1.1189 -0.18278,-1.47359 z m -3.5341,-15.06236 c -0.16194,-0.51595 -0.29216,-0.62255 -0.49542,-0.40538 -0.15611,0.16679 -0.11261,0.71836 0.10057,1.27137 0.32716,0.84923 0.39183,0.90215 0.4954,0.40538 0.0654,-0.31424 0.0203,-0.88636 -0.10056,-1.27137 z m -1.15349,-2.52897 c -0.005,-0.70928 -0.4501,-1.41432 -0.77172,-1.22202 -0.16057,0.096 0.47443,1.95882 0.66779,1.95882 0.06,0 0.10678,-0.33156 0.10386,-0.7368 z m -1.31444,-3.24193 c -0.005,-0.63882 -0.47032,-1.30398 -0.78185,-1.11772 -0.17435,0.10429 0.44887,1.7563 0.66253,1.7563 0.0684,0 0.122,-0.28736 0.11934,-0.63858 z m -1.45818,-3.60538 c -0.11528,-0.36743 -0.35079,-0.66805 -0.52333,-0.66805 -0.41634,0 -0.39561,0.28238 0.0921,1.25433 0.46194,0.92065 0.77191,0.4993 0.4313,-0.58628 z m 9.34981,-4.29133 c 0,-1.02472 -0.14703,-1.90933 -0.3286,-1.9764 -0.21077,-0.0778 -0.32861,0.5874 -0.32861,1.85495 0,1.18662 0.13126,1.9764 0.32861,1.9764 0.19586,0 0.3286,-0.74929 0.3286,-1.85495 z"
   id="path4049"
   inkscape:connector-curvature="0" /><path
   style="fill:#803300;stroke-width:0.25409657"
   d="m 434.8569,296.38751 c -4.1569,-1.10844 -16.80757,-4.46603 -28.11257,-7.46131 l -20.5546,-5.44598 -1.20517,0.30107 c -1.50899,0.37698 -1.55554,0.3757 -1.55194,-0.0428 0.001,-0.1891 -0.42497,-0.56488 -0.94802,-0.83504 -22.63888,-11.69338 -27.54396,-14.15071 -30.81508,-15.43758 -3.0608,-1.20413 -5.04841,-1.52521 -8.78834,-1.41965 -6.44608,0.18194 -8.10411,1.16217 -22.86326,13.51707 -3.67916,3.07982 -6.81308,5.68368 -6.96426,5.78633 -0.15113,0.1026 -0.27485,-10.07231 -0.27485,-22.61103 V 239.9409 l 1.39659,-0.60728 c 5.67993,-2.46986 14.79446,-8.37451 23.2779,-15.08012 4.82396,-3.81303 7.72291,-6.44012 10.944,-9.91771 l 2.7591,-2.9788 1.03282,1.83128 c 0.56807,1.0072 1.25534,2.05232 1.52727,2.32249 0.58951,0.58565 0.59168,0.59227 -0.8371,-2.55489 l -1.02608,-2.26015 2.10716,-2.65184 c 2.3303,-2.93266 4.6664,-6.48897 7.87257,-11.98468 2.20534,-3.78014 2.67499,-4.7155 2.3676,-4.7155 -0.32473,0 -1.48742,1.78323 -3.84322,5.89439 -3.3505,5.84709 -8.49046,13.36065 -9.13989,13.36065 -0.14652,0 -0.59544,-0.5968 -0.99743,-1.32624 -2.261,-4.1027 -7.91407,-12.31136 -12.61764,-18.32177 -14.62883,-18.69326 -37.78234,-40.38182 -64.61125,-60.52325 -2.87748,-2.16023 -5.23176,-3.97065 -5.23176,-4.0232 0,-0.0526 36.66701,-0.0955 81.48225,-0.0955 h 81.48225 l 0.32198,0.7368 c 0.51875,1.18716 2.88684,8.53906 3.78144,11.73969 2.45109,8.76949 4.46639,19.63706 5.44708,29.37378 0.79367,7.8797 0.9827,16.84379 0.99235,47.057 0.0137,40.59882 0.37754,59.70172 1.51582,79.42713 0.12592,2.18353 0.0945,3.77746 -0.0747,3.77094 -0.16109,-0.007 -3.69407,-0.91819 -7.85099,-2.02663 z M 362.44707,241.9513 c -0.33594,-0.72748 -0.17316,-1.48752 0.31858,-1.48752 0.1597,0 0.29027,-0.13259 0.29027,-0.29472 0,-0.16207 -0.14223,-0.29473 -0.31593,-0.29473 -0.17377,0 -0.48486,-0.37507 -0.69131,-0.8335 -0.35294,-0.78366 -0.2797,-1.9328 0.22097,-3.46785 0.13708,-0.42016 0.0974,-0.62212 -0.10729,-0.54649 -0.51598,0.19068 -1.04411,-0.7282 -1.59498,-2.77511 -0.8873,-3.29696 -1.11943,-2.4583 -0.29225,1.05578 0.2779,1.18051 0.79656,3.73787 1.15258,5.68303 0.35605,1.94514 0.75578,3.8461 0.88832,4.22431 l 0.24096,0.68768 0.10487,-0.62939 c 0.0577,-0.34618 -0.0389,-0.94083 -0.21474,-1.32149 z m -3.63356,-15.3851 c -0.28603,-0.29372 -0.33896,-0.25641 -0.34362,0.24221 -0.004,0.32418 0.10335,0.81049 0.23646,1.08064 0.21828,0.44309 0.25194,0.41935 0.34364,-0.24222 0.0558,-0.40338 -0.0506,-0.88967 -0.23648,-1.08063 z m -1.31365,-3.33931 c -0.29797,-0.30604 -0.33958,-0.28875 -0.34441,0.14303 -0.004,0.27016 0.10335,0.71224 0.23647,0.9824 0.23185,0.47064 0.24626,0.46464 0.34442,-0.1432 0.0564,-0.34888 -0.0501,-0.79094 -0.23648,-0.98238 z m -1.16203,-2.71639 c -0.11692,-0.37243 -0.36361,-0.67713 -0.54832,-0.67713 -0.18472,0 -0.25899,0.15466 -0.16503,0.34382 0.094,0.18911 0.27684,0.60842 0.40636,0.93179 0.31324,0.78191 0.57809,0.26555 0.30699,-0.59848 z m -1.32907,-3.02166 c -0.12427,-0.43954 -0.3607,-0.79916 -0.52553,-0.79916 -0.40079,0 -0.37791,0.39669 0.0668,1.1596 0.48715,0.83552 0.74038,0.63652 0.45867,-0.36044 z m 9.3616,-4.53228 c 0,-1.04791 -0.13383,-1.76833 -0.3286,-1.76833 -0.19474,0 -0.32861,0.72042 -0.32861,1.76833 0,1.0479 0.13384,1.76832 0.32861,1.76832 0.19473,0 0.3286,-0.72042 0.3286,-1.76832 z"
   id="path4051"
   inkscape:connector-curvature="0" /><path
   style="fill:#803300;stroke-width:0.25409657"
   d="m 414.31888,290.94476 -28.09605,-7.46819 -1.07913,0.3029 c -1.32591,0.37218 -1.71405,0.38081 -1.71405,0.0381 0,-0.38789 -2.59583,-1.80318 -14.13016,-7.70401 -12.77854,-6.53735 -14.68717,-7.46796 -17.58056,-8.57181 -3.42943,-1.30837 -4.15168,-1.4373 -8.05091,-1.4373 -7.08024,0 -8.4626,0.79304 -23.97406,13.75362 -3.49201,2.91773 -6.47644,5.38895 -6.63212,5.49162 -0.15851,0.10445 -0.28303,-9.8412 -0.28303,-22.59779 v -22.78446 l 2.43545,-1.14064 c 3.24663,-1.52054 11.04507,-6.30107 15.43878,-9.46414 8.58008,-6.17688 14.66027,-11.45145 19.11364,-16.58106 1.02942,-1.18572 1.30801,-1.38395 1.51879,-1.08066 0.14189,0.20431 0.73017,1.16488 1.30713,2.13459 0.57695,0.96973 1.10579,1.66129 1.17517,1.5368 0.0694,-0.1245 -0.33881,-1.23671 -0.90715,-2.47164 l -1.03331,-2.24531 1.14654,-1.36127 c 0.6306,-0.7487 1.82419,-2.30993 2.65246,-3.46938 2.83878,-3.97389 8.96478,-14.21803 8.62418,-14.42168 -0.26925,-0.16106 -1.5019,1.69193 -3.88171,5.83509 -3.46311,6.02916 -8.47712,13.36065 -9.1373,13.36065 -0.13436,0 -0.7268,-0.81785 -1.31673,-1.81743 -14.0274,-23.76834 -40.55524,-50.83478 -76.36275,-77.91317 -3.18592,-2.40924 -5.79255,-4.4207 -5.79255,-4.46991 0,-0.0492 36.66701,-0.0895 81.48225,-0.0895 h 81.48225 l 0.33003,0.73679 c 0.49958,1.11539 2.16254,6.21079 3.2865,10.07003 3.68667,12.65848 5.82655,25.70833 6.58855,40.17977 0.18209,3.45805 0.33511,20.03607 0.34008,36.84002 0.005,16.804 0.15235,37.97963 0.32741,47.05702 0.28738,14.89786 0.48912,20.53838 1.18942,33.25427 0.12766,2.31851 0.096,3.97613 -0.076,3.97249 -0.16228,-0.003 -12.9383,-3.36692 -28.39112,-7.47444 z m -51.70167,-48.27058 c -0.11083,-0.51331 -0.29088,-1.11903 -0.3999,-1.34607 -0.1187,-0.24727 0.004,-0.53336 0.30465,-0.71348 0.45145,-0.26993 0.43512,-0.37843 -0.15972,-1.06081 -0.67246,-0.77143 -0.70771,-2.17702 -0.0999,-3.98084 0.14206,-0.42134 0.10525,-0.62233 -0.10006,-0.54649 -0.51598,0.19068 -1.04411,-0.7282 -1.59498,-2.77511 -0.86336,-3.20798 -1.11597,-2.51039 -0.31329,0.86512 0.25969,1.09204 0.77685,3.6119 1.14929,5.5997 0.7404,3.95193 0.97894,4.89125 1.24203,4.89125 0.0955,0 0.0828,-0.41997 -0.0281,-0.93327 z m -3.79723,-15.97157 c -0.31513,-0.47198 -0.32341,-0.46865 -0.34373,0.13883 -0.0114,0.34237 0.0902,0.78445 0.22561,0.98239 0.21089,0.30796 0.2605,0.28793 0.34374,-0.13882 0.0535,-0.27431 -0.0479,-0.71639 -0.22562,-0.98238 z m -1.31444,-3.34017 -0.32291,-0.48364 -0.0171,0.49121 c -0.009,0.27015 0.0916,0.71223 0.22339,0.9824 l 0.23974,0.49119 0.0995,-0.49876 c 0.0547,-0.27433 -0.0458,-0.71641 -0.22342,-0.9824 z m -1.31547,-3.14532 -0.32187,-0.48199 -0.0209,0.52424 c -0.0114,0.28835 0.0888,0.68622 0.22266,0.88416 0.22599,0.33406 0.25062,0.33101 0.34271,-0.0423 0.0546,-0.22118 -0.0455,-0.61905 -0.22266,-0.88416 z m -1.34363,-3.02726 c -0.53812,-0.84627 -0.76099,-0.45677 -0.29268,0.51151 0.29152,0.60267 0.44769,0.73515 0.52944,0.44902 0.0638,-0.22319 -0.0429,-0.65543 -0.23676,-0.96053 z m 9.52392,-4.13507 c 0,-0.9824 -0.13538,-1.67008 -0.3286,-1.67008 -0.36428,0 -0.46655,2.99572 -0.10957,3.20918 0.40709,0.24339 0.43814,0.13427 0.43814,-1.5391 z"
   id="path4053"
   inkscape:connector-curvature="0" /><path
   style="fill:#803300;stroke-width:0.25409657"
   d="m 416.12622,291.44603 c -14.45878,-3.83507 -27.0937,-7.18741 -28.07759,-7.44968 -1.65516,-0.4412 -1.87314,-0.45581 -2.91547,-0.19542 -1.40025,0.34983 -1.70351,0.35254 -1.70351,0.0152 0,-0.35808 -2.00539,-1.46249 -11.5013,-6.3339 -17.02442,-8.73356 -19.41999,-9.86827 -22.87874,-10.83695 -1.72399,-0.48283 -2.30142,-0.54076 -5.38159,-0.53983 -6.97565,0.002 -8.38466,0.79642 -23.00056,12.96665 -4.02318,3.34999 -7.44397,6.17489 -7.60175,6.27756 -0.16365,0.10648 -0.2869,-9.61528 -0.2869,-22.62075 v -22.80729 l 1.88951,-0.83898 c 2.62288,-1.16463 11.76209,-6.70114 15.5817,-9.43939 8.53232,-6.11673 14.89437,-11.62944 19.66324,-17.03824 0.59928,-0.67968 1.18643,-1.16597 1.30481,-1.08064 0.11844,0.0854 0.63369,0.90667 1.14518,1.82522 0.51148,0.91855 1.07296,1.75848 1.24774,1.86656 0.20682,0.12787 0.25544,0.0593 0.13932,-0.19648 -0.0982,-0.21614 -0.56933,-1.26877 -1.04696,-2.33922 l -0.86846,-1.94623 2.14173,-2.78315 c 2.72668,-3.54328 3.53799,-4.77866 3.21633,-4.89751 -0.1412,-0.0522 -0.82442,0.76212 -1.51828,1.80953 -1.66076,2.50701 -4.15728,5.73578 -4.43499,5.73578 -0.12136,0 -1.41806,-1.92339 -2.88179,-4.2742 -6.8655,-11.02621 -16.70674,-23.22054 -28.42239,-35.21832 -12.6379,-12.94226 -29.60097,-27.61103 -47.29003,-40.89387 -2.68727,-2.01791 -4.88595,-3.72189 -4.88595,-3.78665 0,-0.0647 36.7097,-0.0955 81.57708,-0.0682 l 81.5771,0.0495 1.22914,3.63488 c 4.01533,11.87438 6.6807,24.24415 8.12854,37.7242 0.76857,7.15566 0.98217,16.70126 0.99364,44.40452 0.006,15.93944 0.15646,37.0709 0.33287,46.95876 0.28943,16.21712 0.45564,21.11807 1.19104,35.12083 0.1287,2.44967 0.0966,4.17384 -0.0772,4.1719 -0.16314,-0.002 -12.12652,-3.14106 -26.58531,-6.97611 z m -53.55398,-49.15538 c -0.32622,-1.0397 -0.61971,-0.60953 -0.32253,0.47271 0.14241,0.51828 0.32171,0.77879 0.39862,0.57888 0.077,-0.1999 0.0426,-0.67313 -0.0761,-1.05159 z m -0.35687,-2.90998 c -0.54845,-0.85864 -0.53223,-2.50797 0.0382,-3.88617 0.16503,-0.3989 0.11083,-0.53285 -0.19875,-0.49121 -0.49454,0.0666 -1.07063,-1.04158 -1.63674,-3.14835 -0.75173,-2.79754 -0.66319,-1.21256 0.14207,2.54216 0.44905,2.09394 0.9208,4.50449 1.04833,5.35677 0.22245,1.48646 0.25079,1.52806 0.69555,1.02051 0.40619,-0.46353 0.39522,-0.63626 -0.0886,-1.39371 z m -3.40035,-12.61636 c -0.31518,-0.32375 -0.34002,-0.32058 -0.34513,0.0441 -0.004,0.21612 0.10233,0.61399 0.23424,0.88414 l 0.23974,0.49121 0.10538,-0.5353 c 0.058,-0.29443 -0.0474,-0.6923 -0.23425,-0.88416 z m -1.16504,-3.13121 c -0.3114,-0.74183 -0.61472,-0.40626 -0.32667,0.36141 0.13469,0.35894 0.31107,0.5383 0.39197,0.39858 0.0809,-0.13966 0.0516,-0.4817 -0.0653,-0.75999 z m -1.31443,-3.14367 c -0.31141,-0.74185 -0.61472,-0.40627 -0.32668,0.36139 0.1347,0.35894 0.31108,0.5383 0.39197,0.39858 0.0809,-0.13966 0.0516,-0.4817 -0.0653,-0.75997 z m -1.36932,-2.98245 c -0.11413,-0.34146 -0.33705,-0.62081 -0.4952,-0.62081 -0.36294,0 -0.36188,0.0101 0.079,0.76661 0.45271,0.77646 0.6961,0.69118 0.41614,-0.14573 z m 9.40413,-4.45219 c 0,-0.85141 -0.1388,-1.4736 -0.3286,-1.4736 -0.18987,0 -0.32861,0.62219 -0.32861,1.4736 0,0.85143 0.13881,1.47361 0.32861,1.47361 0.18986,0 0.3286,-0.62218 0.3286,-1.47361 z m -2.11247,-17.86048 c 1.16705,-2.04267 2.06285,-3.74926 1.99065,-3.79243 -0.22427,-0.1341 -2.13104,2.76585 -4.20323,6.39255 -1.09093,1.90935 -2.18974,3.76829 -2.44175,4.13099 -0.25203,0.36269 -0.36416,0.75042 -0.2492,0.86165 0.24173,0.23386 1.88994,-2.31828 4.90353,-7.59276 z"
   id="path4055"
   inkscape:connector-curvature="0" /><path
   style="fill:#803300;stroke-width:0.25409657"
   d="m 440.60756,297.93162 c -0.99406,-0.26747 -13.63211,-3.61883 -28.08461,-7.44745 -26.26901,-6.95898 -26.2776,-6.96109 -27.39679,-6.68148 -1.44406,0.36075 -1.58756,0.35349 -1.78171,-0.0903 -0.16623,-0.38023 -6.76076,-3.88331 -19.46699,-10.34114 -8.79216,-4.46855 -11.83614,-5.85315 -14.6231,-6.65159 -1.98061,-0.56744 -2.3882,-0.61153 -5.60461,-0.60616 -3.10067,0.005 -3.66339,0.0627 -5.30381,0.54263 -3.54056,1.03573 -6.48471,3.12258 -18.48691,13.10377 -3.57347,2.97176 -6.62841,5.48721 -6.78872,5.58986 -0.16966,0.10867 -0.2915,-9.33359 -0.2915,-22.59872 v -22.78537 l 3.152,-1.55413 c 10.10859,-4.98421 24.99017,-16.10037 32.69433,-24.42185 1.32485,-1.43101 2.50761,-2.53621 2.62835,-2.456 0.12085,0.0802 0.60988,0.85316 1.08698,1.71767 0.8122,1.47169 1.8076,2.74014 1.38767,1.76833 -0.0935,-0.21614 -0.56149,-1.27816 -1.04021,-2.36008 l -0.87046,-1.96711 2.12412,-2.74841 c 3.26424,-4.22365 10.30763,-15.54044 10.00736,-16.07906 -0.15766,-0.28272 -0.85514,0.793 -4.1849,6.45384 -3.59625,6.11392 -7.88491,12.28001 -8.54105,12.28001 -0.12989,0 -0.86611,-1.03889 -1.63591,-2.30864 -14.78573,-24.38885 -40.10585,-50.11445 -76.46993,-77.69447 -2.94674,-2.23493 -5.35771,-4.11394 -5.35771,-4.17559 0,-0.0617 36.70968,-0.0898 81.57707,-0.0627 l 81.57709,0.0495 0.72391,2.06304 c 4.03932,11.51154 6.96092,24.5297 8.46625,37.7242 0.92583,8.11507 1.14905,16.59832 1.16064,44.1098 0.0114,29.15138 0.45326,61.93988 0.97378,72.40295 0.17472,3.51208 0.41983,8.48549 0.54473,11.05201 0.13418,2.75581 0.10525,4.66486 -0.0704,4.66264 -0.16365,-0.002 -1.11085,-0.22259 -2.1049,-0.49005 z M 362.58127,242.5159 c -0.12377,-0.3943 -0.29888,-0.67271 -0.38925,-0.61866 -0.0903,0.0541 -0.063,0.42085 0.0606,0.81515 0.12377,0.3943 0.29888,0.67271 0.38926,0.61868 0.0903,-0.0541 0.063,-0.42085 -0.0606,-0.81517 z m -0.17344,-1.86582 c 0.27677,-0.30922 0.23207,-0.60476 -0.19193,-1.26859 -0.55143,-0.8633 -0.53281,-2.50163 0.0444,-3.90803 0.15868,-0.38648 0.12009,-0.52753 -0.11984,-0.43888 -0.51544,0.19048 -0.72178,-0.10142 -1.41379,-2.00016 -0.41863,-1.14865 -0.5888,-1.41778 -0.52022,-0.82282 0.1311,1.13767 1.6712,8.84163 1.76753,8.84163 0.0401,0 0.23536,-0.18144 0.43385,-0.40315 z m -2.42035,-10.05942 c -0.0912,-0.13512 -0.16571,-0.0246 -0.16571,0.24559 0,0.27017 0.0746,0.38069 0.16571,0.2456 0.0912,-0.13512 0.0912,-0.35612 0,-0.49119 z m -1.17042,-3.69626 c -0.30364,-0.45449 -0.32105,-0.45719 -0.34081,-0.0531 -0.0114,0.23432 0.0857,0.58798 0.2159,0.78593 0.19478,0.29609 0.25522,0.30548 0.34083,0.0531 0.0572,-0.16885 -0.0399,-0.52251 -0.21592,-0.78593 z m -1.31726,-3.34475 c -0.21007,-0.31419 -0.3242,-0.36368 -0.33799,-0.14657 -0.0275,0.43553 0.39769,1.08276 0.54178,0.82434 0.0624,-0.11187 -0.0293,-0.41685 -0.20379,-0.67775 z m -1.31443,-3.14369 c -0.21007,-0.31417 -0.3242,-0.36368 -0.338,-0.14657 -0.0278,0.43553 0.3977,1.08276 0.54178,0.82434 0.0624,-0.11187 -0.0293,-0.41685 -0.20378,-0.67775 z m -1.21914,-2.89898 c -0.11413,-0.34146 -0.33705,-0.62081 -0.4952,-0.62081 -0.36294,0 -0.36188,0.0101 0.079,0.76661 0.45271,0.77646 0.6961,0.69118 0.41614,-0.14573 z m 9.40413,-4.45219 c 0,-0.72042 -0.14327,-1.27711 -0.3286,-1.27711 -0.18537,0 -0.32861,0.55669 -0.32861,1.27711 0,0.72044 0.14326,1.27712 0.32861,1.27712 0.18537,0 0.3286,-0.55668 0.3286,-1.27712 z"
   id="path4057"
   inkscape:connector-curvature="0" /><path
   style="fill:#803300;stroke-width:0.1917574"
   d=""
   id="path4059"
   inkscape:connector-curvature="0" /><path
   style="fill:#803300;stroke-width:0.1917574"
   d=""
   id="path4061"
   inkscape:connector-curvature="0" /><path
   style="fill:#803300;stroke-width:0.25409657"
   d="m 419.248,292.31583 c -34.25573,-9.11681 -32.66097,-8.72441 -34.28026,-8.43435 -1.11251,0.19931 -1.37504,0.19505 -1.48797,-0.0241 -0.21402,-0.41546 -2.73418,-1.78028 -13.52305,-7.32351 -15.15963,-7.7889 -17.99982,-9.11846 -21.27514,-9.95934 -2.13972,-0.54933 -8.41564,-0.48176 -10.42092,0.11221 -3.28927,0.97427 -7.10514,3.71345 -19.42156,13.9416 l -5.89598,4.89629 -0.0889,-22.776 -0.0889,-22.77598 0.91054,-0.46131 c 5.16594,-2.61715 6.99885,-3.64949 10.69296,-6.02255 9.64614,-6.19656 18.55605,-13.38129 24.23202,-19.54004 1.31238,-1.42402 2.49243,-2.51716 2.62232,-2.4292 0.12989,0.0879 0.65872,0.89936 1.17523,1.80308 0.51648,0.90372 0.97857,1.56685 1.02685,1.4736 0.19075,-0.36842 -1.77734,-4.44636 -2.02858,-4.2033 -0.16194,0.15668 -1.27654,-1.36684 -2.96039,-4.04658 -15.68834,-24.9673 -41.39786,-50.57385 -79.12988,-78.81302 l -1.90333,-1.42448 h 81.65383 c 49.16539,0 81.72795,0.0718 81.84011,0.1802 0.10247,0.0991 0.76749,1.93375 1.47789,4.07698 4.15787,12.544 6.74382,25.04086 8.24667,39.85263 0.17543,1.72903 0.45784,22.32996 0.62757,45.77988 0.29767,41.12451 0.67932,61.93036 1.33353,72.69766 0.44094,7.25728 0.42051,9.53294 -0.0853,9.51358 -0.22592,-0.008 -10.68798,-2.75089 -23.24905,-6.09389 z M 362.62318,242.7847 c -0.10487,-0.15668 -0.18276,-0.11018 -0.19852,0.11878 -0.0137,0.20712 0.0634,0.32317 0.17258,0.25788 0.10918,-0.0652 0.12085,-0.23477 0.0259,-0.37659 z m -0.41355,-3.34532 c -0.54183,-0.91819 -0.60957,-2.51467 -0.14755,-3.47781 0.25026,-0.52177 0.21618,-0.7153 -0.1556,-0.88287 -0.26183,-0.1181 -0.70401,-0.70089 -0.98264,-1.29525 l -0.50659,-1.08064 0.14789,0.98241 c 0.0814,0.54032 0.41228,2.37986 0.73532,4.08788 0.47691,2.5217 0.66158,3.04478 0.98226,2.78255 0.3105,-0.25389 0.29484,-0.49254 -0.0732,-1.11627 z m -1.8867,-7.26461 c -0.10488,-0.15668 -0.18276,-0.11018 -0.19853,0.11878 -0.0137,0.20712 0.0634,0.32317 0.17258,0.25788 0.10919,-0.0652 0.12085,-0.23477 0.0259,-0.37659 z m -1.51103,-5.09225 c -0.17315,-0.25883 -0.32421,-0.36731 -0.33565,-0.24107 -0.0279,0.30663 0.35496,0.88839 0.51974,0.78988 0.072,-0.043 -0.0101,-0.28998 -0.18409,-0.54881 z m -3.89169,-9.51158 c -0.0869,-0.27177 -0.28649,-0.5416 -0.44357,-0.59966 -0.15715,-0.058 -0.21338,0.0317 -0.12517,0.19939 0.0883,0.16764 0.22984,0.43755 0.31452,0.59966 0.24893,0.47641 0.42582,0.33762 0.25412,-0.19939 z m 9.45015,-4.52774 c 0,-0.67813 -0.12465,-1.0462 -0.3286,-0.97081 -0.5781,0.21363 -0.38172,2.06304 0.21908,2.06304 0.0604,0 0.10944,-0.49151 0.10944,-1.09223 z m -8.8072,-7.33179 c 0.88291,-1.2292 1.55974,-2.31656 1.50409,-2.41638 -0.0813,-0.14557 -4.10204,5.28801 -4.45839,6.02482 -0.28133,0.5817 1.5606,-1.66807 2.9543,-3.60844 z m 2.33143,-3.31566 c 0.0951,-0.18913 1.16866,-1.97955 2.38551,-3.97874 2.35343,-3.86643 3.79711,-6.48384 3.57633,-6.48384 -0.21685,0 -0.96764,1.15864 -2.90914,4.48946 -1.0028,1.72039 -2.26573,3.84549 -2.80653,4.72246 -0.54078,0.87697 -0.85635,1.59451 -0.70124,1.59451 0.1551,0 0.3599,-0.15467 0.45507,-0.34385 z"
   id="path4063"
   inkscape:connector-curvature="0" /><path
   style="fill:#803300;stroke-width:0.25409657"
   d="m 440.44325,297.93341 c -3.03833,-0.84929 -48.604,-12.90013 -51.4072,-13.59578 -2.57357,-0.63864 -2.86831,-0.67111 -4.09614,-0.45116 -1.08407,0.1942 -1.34848,0.18893 -1.46393,-0.0291 -0.2196,-0.41485 -2.31739,-1.54251 -14.83371,-7.97372 -12.67254,-6.51147 -16.28619,-8.22692 -19.05929,-9.04774 -1.67614,-0.49612 -2.10554,-0.53496 -5.91496,-0.53496 -5.08703,0 -5.73367,0.16174 -9.37985,2.34604 -2.85932,1.71295 -6.28127,4.36669 -15.44966,11.98133 l -5.89539,4.89629 -0.0889,-22.776 -0.0889,-22.77599 0.91054,-0.4581 c 12.82503,-6.45245 26.35164,-16.36784 35.09444,-25.72522 1.23804,-1.32507 2.34711,-2.34185 2.46459,-2.25952 0.11755,0.0824 0.6248,0.83913 1.12737,1.6818 0.50257,0.84266 0.9673,1.5001 1.03273,1.46098 0.25705,-0.15365 -1.58649,-3.79212 -2.0246,-3.99573 -0.25644,-0.11929 -1.41166,-1.71069 -2.56714,-3.53665 -3.06082,-4.8369 -5.08015,-7.8073 -7.86695,-11.57208 -15.6658,-21.1634 -39.26525,-43.55361 -70.98104,-67.34397 l -2.5544,-1.91608 81.75464,0.0495 81.7546,0.0495 0.87924,2.42706 c 3.08032,8.503 6.17888,21.43455 7.65733,31.95697 1.56575,11.1438 1.79721,17.2885 1.86883,49.61124 0.073,32.94049 0.42527,60.43706 0.90625,70.73287 0.83977,17.97598 0.82677,17.29153 0.32796,17.27387 -0.25476,-0.008 -1.20258,-0.22304 -2.10624,-0.47564 z M 362.09549,239.244 c -0.42151,-0.72298 -0.44877,-2.32731 -0.0567,-3.33634 0.2066,-0.53166 0.17051,-0.75026 -0.13555,-0.82048 -0.22943,-0.0527 -0.60877,-0.54276 -0.84298,-1.08918 -0.23423,-0.5464 -0.48249,-0.95961 -0.55173,-0.91821 -0.16673,0.0997 1.21093,7.00492 1.47324,7.38399 0.38208,0.55213 0.48748,-0.5787 0.11363,-1.21978 z m -1.77256,-7.06923 c -0.10488,-0.15668 -0.18276,-0.11018 -0.19853,0.11878 -0.0137,0.20712 0.0634,0.32317 0.17258,0.25788 0.10919,-0.0652 0.12085,-0.23477 0.0259,-0.37659 z m -1.51103,-5.09225 c -0.17315,-0.25883 -0.32421,-0.36731 -0.33565,-0.24107 -0.0279,0.30663 0.35496,0.88839 0.51974,0.78988 0.072,-0.043 -0.0101,-0.28998 -0.18409,-0.54881 z m -3.90682,-9.55779 c -0.0952,-0.29718 -0.23654,-0.42689 -0.31405,-0.28825 -0.13983,0.25002 0.1102,0.82856 0.35811,0.82856 0.0709,0 0.0511,-0.24314 -0.044,-0.54031 z m 9.46528,-4.3717 c 0,-0.54032 -0.1479,-0.9824 -0.3286,-0.9824 -0.36242,0 -0.45947,1.6246 -0.10957,1.83383 0.392,0.23438 0.43814,0.14472 0.43814,-0.85143 z m -8.80857,-7.43775 c 0.88368,-1.23135 1.54621,-2.27499 1.4723,-2.31917 -0.1192,-0.0713 -3.67092,4.68845 -4.05507,5.43437 -0.37277,0.72379 1.11908,-1.0756 2.58277,-3.1152 z m 5.60757,-8.80402 c 2.5254,-4.34394 2.92138,-5.08836 2.5917,-4.87223 -0.50166,0.32886 -6.30742,10.09397 -6.27227,10.54973 0.0264,0.34259 1.52128,-1.9633 3.68057,-5.6775 z"
   id="path4065"
   inkscape:connector-curvature="0" /><path
   style="fill:#803300;stroke-width:0.25409657"
   d="m 416.99282,291.73242 c -30.6922,-8.15274 -30.6209,-8.13524 -32.01449,-7.86056 -1.03528,0.20406 -1.11327,0.17478 -4.02045,-1.50989 -3.52217,-2.04105 -21.12465,-11.06334 -26.01696,-13.33521 -1.89114,-0.87818 -4.27698,-1.85076 -5.30187,-2.16128 -1.75823,-0.53269 -2.09528,-0.56444 -5.97103,-0.56254 -3.64232,0.002 -4.26747,0.0529 -5.519,0.45059 -3.57232,1.13537 -7.30376,3.87546 -22.26038,16.34644 l -2.94552,2.45601 -0.0894,-22.7917 -0.0894,-22.79171 1.56824,-0.77723 c 2.67188,-1.32422 10.51429,-5.99639 13.7012,-8.16262 8.29255,-5.63657 15.07228,-11.29281 20.90069,-17.4371 1.15296,-1.21545 2.19336,-2.14382 2.31198,-2.06304 0.11857,0.0807 0.62606,0.83207 1.1276,1.66958 0.50154,0.83749 0.96882,1.52272 1.03842,1.52272 0.35561,0 -1.76473,-4.07292 -2.16571,-4.16009 -0.16246,-0.0354 -1.65768,-2.18623 -3.32261,-4.77976 -15.74455,-24.52591 -40.74922,-49.5107 -76.49158,-76.43078 l -3.91306,-2.94722 81.51576,-0.0495 c 44.83368,-0.0273 81.62537,0.017 81.75931,0.0982 0.38249,0.23206 2.39704,6.31714 4.01682,12.13305 2.79679,10.04215 4.62521,20.00942 5.80286,31.6333 0.17517,1.72903 0.46063,21.71107 0.63437,44.40452 0.31149,40.68949 0.72484,63.58624 1.33194,73.77832 0.44385,7.45134 0.42244,10.02365 -0.0833,10.00675 -0.22591,-0.007 -11.70281,-3.01322 -25.50421,-6.67927 z m -54.78743,-52.00544 c -0.15354,-0.40523 -0.29046,-1.57676 -0.30412,-2.60337 -0.0137,-1.02661 -0.20187,-2.11359 -0.41829,-2.41554 -0.21641,-0.30194 -0.48634,-0.77025 -0.59985,-1.04067 -0.46124,-1.09878 -0.39371,-0.19264 0.21419,2.87441 0.35257,1.77886 0.64173,3.38901 0.64261,3.57813 9.7e-4,0.18911 0.1688,0.34384 0.37317,0.34384 0.26,0 0.28772,-0.22131 0.0923,-0.7368 z m -3.30797,-12.53409 c -0.10716,-0.16679 -0.26508,-0.26105 -0.35121,-0.20955 -0.0862,0.0516 -0.0591,0.18794 0.06,0.30319 0.32403,0.31348 0.51341,0.25258 0.29122,-0.0937 z m 5.47294,-14.05145 c 0,-0.61264 -0.12617,-0.94741 -0.3286,-0.87257 -0.36326,0.13428 -0.44094,1.06996 -0.12921,1.55577 0.33881,0.52791 0.45775,0.35038 0.45775,-0.6832 z m -10.21016,-5.58809 c 0,-0.10799 -0.21133,0.0246 -0.46961,0.29472 -0.2583,0.27015 -0.46964,0.57962 -0.46964,0.68768 0,0.10799 0.21134,-0.0246 0.46964,-0.29473 0.25828,-0.27015 0.46961,-0.57961 0.46961,-0.68767 z m 1.48705,-1.98318 c 0.66724,-0.92867 1.15014,-1.72615 1.07312,-1.77221 -0.0771,-0.046 -0.62329,0.60324 -1.21391,1.44288 -1.4147,2.01111 -1.41878,2.0178 -1.23281,2.0178 0.0883,0 0.70637,-0.75983 1.3736,-1.68847 z m 3.48982,-5.29928 c 1.9124,-3.04106 4.60412,-7.79701 4.46121,-7.88245 -0.18436,-0.11018 -6.12869,9.69402 -6.12869,10.10833 0,0.31335 0.44015,-0.27421 1.66748,-2.22588 z"
   id="path4067"
   inkscape:connector-curvature="0" /><path
   style="fill:#803300;stroke-width:0.25409657"
   d="m 415.79762,291.42679 c -14.45879,-3.83748 -27.08301,-7.13817 -28.05383,-7.33486 -1.32573,-0.26862 -2.03735,-0.31271 -2.8586,-0.17712 -1.03236,0.17043 -1.17237,0.12922 -2.50677,-0.7373 -0.77732,-0.50481 -4.44474,-2.48847 -8.1498,-4.40814 -16.07349,-8.32799 -21.33309,-10.86726 -24.64564,-11.89865 -1.71152,-0.5329 -2.02515,-0.56246 -5.91496,-0.55728 -3.65095,0.005 -4.27199,0.0564 -5.58635,0.46381 -3.10872,0.96365 -7.47512,4.12267 -19.57381,14.16145 l -5.56474,4.61728 -0.0869,-22.7917 -0.0869,-22.79171 1.72984,-0.86452 c 3.14674,-1.57265 12.87865,-7.54441 16.25709,-9.97578 6.99101,-5.03126 13.21538,-10.34595 17.98495,-15.3565 1.2541,-1.31746 2.38377,-2.32812 2.51038,-2.24587 0.12669,0.0822 0.5662,0.72425 0.97691,1.42666 0.41069,0.7024 0.87942,1.36553 1.04162,1.4736 0.18477,0.12316 0.2342,0.0864 0.13229,-0.0982 -0.0894,-0.16207 -0.54289,-1.06121 -1.00776,-1.99804 -0.46488,-0.93682 -0.98471,-1.73255 -1.15518,-1.76832 -0.17051,-0.0357 -1.56188,-2.01015 -3.09202,-4.38756 -10.83013,-16.82709 -23.85923,-31.70539 -42.79979,-48.87427 -10.88618,-9.86789 -25.48935,-21.81712 -36.85886,-30.16028 l -1.13848,-0.83542 81.77355,0.0495 81.77355,0.0495 0.55304,1.42288 c 2.61965,6.73992 5.90062,19.65986 7.49718,29.52275 1.92137,11.86925 2.30569,19.32781 2.31846,44.99394 0.0114,25.15247 0.56043,68.83864 0.98012,78.14371 0.79392,17.60291 0.79956,17.93587 0.30325,17.92441 -0.2549,-0.007 -12.29336,-3.15048 -26.75214,-6.98795 z m -53.69458,-52.04687 c -0.20904,-0.49631 -0.36738,-1.627 -0.3519,-2.51263 0.0204,-1.1671 -0.15578,-1.90763 -0.64016,-2.69088 -0.54286,-0.8778 -0.6397,-0.95156 -0.51595,-0.39296 0.0838,0.37822 0.3836,1.9255 0.66622,3.4384 0.53891,2.88488 0.6965,3.3746 1.02308,3.17934 0.10931,-0.0654 0.0278,-0.52492 -0.18129,-1.02127 z m 2.26732,-26.22689 c 0,-0.43226 -0.1479,-0.78592 -0.3286,-0.78592 -0.36357,0 -0.45729,1.23294 -0.10957,1.44085 0.38375,0.22945 0.43814,0.14809 0.43814,-0.65493 z m -10.57894,-5.21191 c -0.10107,-0.0605 -0.28491,0.0485 -0.40831,0.24231 -0.17832,0.28003 -0.14052,0.3026 0.18394,0.11002 0.2246,-0.13326 0.32554,-0.29183 0.22437,-0.35232 z m 2.32239,-3.13849 c -0.0114,-0.25229 -1.88098,2.09606 -1.87694,2.35777 10e-4,0.10799 0.42669,-0.33402 0.94447,-0.98242 0.5178,-0.64838 0.9374,-1.26729 0.93247,-1.37535 z m 0.49532,-0.59964 c 0.11223,-0.17486 0.0571,-0.25372 -0.12921,-0.18488 -0.17866,0.066 -0.32484,0.20323 -0.32484,0.3049 0,0.28264 0.23553,0.22035 0.45399,-0.11995 z m 2.17847,-3.37908 c 2.56588,-4.19496 4.93758,-8.3831 4.64529,-8.20305 -0.26457,0.16291 -5.9633,9.56164 -5.9633,9.83497 0,0.35813 0.4153,-0.15601 1.31801,-1.63192 z"
   id="path4069"
   inkscape:connector-curvature="0" /><path
   style="fill:#803300;stroke-width:0.25409657"
   d="m 417.27634,291.82641 c -30.45418,-8.07553 -30.23127,-8.02091 -32.10553,-7.86731 -1.34751,0.11052 -1.50715,0.0726 -2.47781,-0.58847 -2.0067,-1.36656 -22.93525,-12.12496 -28.28357,-14.53929 -5.16904,-2.33342 -5.8887,-2.50387 -10.5771,-2.50513 -3.31692,-9.8e-4 -4.19058,0.0652 -5.50002,0.41674 -3.07386,0.82502 -6.81456,3.47053 -17.98897,12.72214 -3.65466,3.02579 -6.85174,5.63092 -7.10467,5.78915 -0.39418,0.24662 -0.45986,-2.96989 -0.45986,-22.52484 v -22.81254 l 2.81482,-1.42886 c 3.47194,-1.76245 11.02136,-6.42929 15.07961,-9.32182 6.7598,-4.81809 12.92648,-10.06963 17.93962,-15.27738 1.32687,-1.3784 2.51523,-2.4394 2.64081,-2.35777 0.12567,0.0817 0.5615,0.70312 0.96875,1.3811 0.40724,0.678 0.79064,1.20271 0.85199,1.16602 0.20859,-0.12467 -1.16495,-2.73847 -1.69167,-3.21912 -0.28835,-0.26314 -1.67979,-2.26581 -3.09211,-4.4504 -5.50901,-8.52141 -9.93897,-14.45743 -16.59465,-22.23643 -14.85397,-17.36095 -34.25421,-35.04742 -59.26757,-54.03205 l -4.91862,-3.73312 81.52053,-0.0495 c 44.83627,-0.0273 81.63795,0.0207 81.7815,0.10648 0.31042,0.18561 2.19192,5.67519 3.54952,10.35641 2.9103,10.03514 5.15007,21.89989 6.24973,33.10692 0.17496,1.78304 0.46167,20.61567 0.63716,41.85027 0.32951,39.87611 0.80546,66.98424 1.33504,76.03783 0.4426,7.56655 0.41782,10.61222 -0.0862,10.59984 -0.2259,-0.005 -11.57523,-2.97055 -25.2207,-6.58894 z m -55.15934,-52.376 -0.31624,-0.65671 -0.0297,0.70406 c -0.0171,0.38722 0.0781,0.76851 0.20998,0.84731 0.40241,0.24062 0.4696,-0.20166 0.13589,-0.89466 z m -0.73747,-4.73465 c -0.22085,-0.40578 -0.46352,-0.70071 -0.5393,-0.65541 -0.0757,0.0453 0.0591,1.12886 0.29961,2.40786 l 0.43736,2.32549 0.10196,-1.67009 c 0.0585,-0.9576 -0.0694,-1.98483 -0.29958,-2.40785 z m 2.9072,-22.00481 c -0.11362,-0.38818 -0.16075,-0.40011 -0.38691,-0.0977 -0.14172,0.18936 -0.14103,0.58723 0.001,0.88416 0.24362,0.50775 0.26664,0.51358 0.38692,0.0977 0.0702,-0.24314 0.0697,-0.64101 -10e-4,-0.88416 z m -9.12748,-6.53297 c 0,-0.10799 -0.14326,-0.0639 -0.31854,0.0982 -0.1752,0.16208 -0.31854,0.38314 -0.31854,0.4912 0,0.10799 0.14328,0.0639 0.31854,-0.0982 0.17521,-0.16207 0.31854,-0.38313 0.31854,-0.4912 z m 0.97261,-1.37535 c 0,-0.10799 -0.21133,0.0246 -0.46963,0.29472 -0.25828,0.27016 -0.46961,0.57962 -0.46961,0.68768 0,0.10799 0.21133,-0.0246 0.46961,-0.29471 0.2583,-0.27017 0.46963,-0.57963 0.46963,-0.68769 z m 2.66306,-4.03292 c 1.41905,-2.28388 4.58962,-7.68071 4.58962,-7.81231 0,-0.059 -0.0767,-0.0613 -0.17085,-0.005 -0.18543,0.11086 -5.74417,9.33949 -5.74417,9.53645 0,0.29955 0.36669,-0.17605 1.32533,-1.71892 z"
   id="path4071"
   inkscape:connector-curvature="0" /><path
   style="fill:#803300;stroke-width:0.25409657"
   d="m 439.45742,297.69936 c -13.75099,-3.67137 -46.43902,-12.27728 -49.27601,-12.97309 -2.95432,-0.7246 -3.84228,-0.86291 -4.95449,-0.77177 -1.31581,0.10782 -1.42099,0.0728 -3.62997,-1.21164 -4.50857,-2.6214 -24.78435,-12.93268 -28.76197,-14.62693 -3.64453,-1.55237 -4.47307,-1.70752 -9.14536,-1.71246 -3.51529,-0.003 -4.28931,0.0546 -5.5415,0.41699 -2.93749,0.85023 -6.98119,3.72842 -17.73773,12.62517 -3.38406,2.79896 -6.48089,5.3188 -6.88182,5.59968 l -0.72899,0.51067 -0.0101,-22.80614 -0.0102,-22.80615 3.43585,-1.81151 c 10.94704,-5.77173 23.1574,-14.8656 31.8753,-23.73967 1.61278,-1.64166 3.04059,-2.94484 3.17289,-2.89595 0.1323,0.0489 0.56305,0.66829 0.95718,1.37643 0.39412,0.70816 0.77747,1.25115 0.85187,1.20666 0.20629,-0.12333 -1.1816,-2.73261 -1.72358,-3.2404 -0.26252,-0.24597 -1.78474,-2.45637 -3.3827,-4.91199 -11.12285,-17.09286 -24.4268,-32.19041 -43.58297,-49.45876 -9.43888,-8.50866 -21.63889,-18.53734 -32.62632,-26.81954 l -4.30085,-3.24193 81.54768,-0.0495 c 44.85121,-0.0273 81.65811,0.017 81.79311,0.0982 0.61712,0.37149 3.77719,10.50149 5.50591,17.64981 1.86657,7.71845 3.4365,17.09552 4.30669,25.72359 0.17438,1.72901 0.46097,19.85431 0.63687,40.27843 0.34199,39.70825 0.84699,68.87136 1.33881,77.31494 0.44361,7.61593 0.41663,11.00565 -0.0876,10.9908 -0.22591,-0.007 -1.59375,-0.32794 -3.03962,-0.71396 z m -77.26297,-57.97238 c -0.30951,-0.77138 -0.45296,-0.79731 -0.45296,-0.0819 0,0.3422 0.15062,0.62219 0.33487,0.62219 0.1988,0 0.24677,-0.21956 0.11806,-0.54032 z m -0.80909,-4.91764 c -0.21548,-0.46238 -0.45172,-0.80482 -0.52499,-0.76102 -0.0733,0.0438 0.0581,1.08524 0.29181,2.31427 l 0.42502,2.23463 0.0999,-1.47361 c 0.055,-0.81047 -0.0762,-1.8519 -0.29181,-2.31427 z m 2.89565,-22.00015 c -0.13093,-0.32747 -0.14943,-0.32747 -0.38785,0 -0.13762,0.18911 -0.13762,0.49857 0,0.68768 0.23838,0.32747 0.25686,0.32747 0.38785,0 0.0757,-0.18911 0.0757,-0.49857 0,-0.68768 z m -3.63754,-15.15606 c 0.97578,-1.66288 1.7172,-3.05747 1.64761,-3.09908 -0.10691,-0.064 -3.73511,5.91414 -4.31212,7.10489 -0.55295,1.14112 1.12136,-1.37602 2.66451,-4.00581 z"
   id="path4073"
   inkscape:connector-curvature="0" /><path
   style="fill:#803300;stroke-width:0.25409657"
   d="m 440.93617,298.09427 c -0.63258,-0.16444 -10.17044,-2.68734 -21.19526,-5.60632 -32.66972,-8.64971 -31.92991,-8.46565 -34.09383,-8.48254 -1.85415,-0.0152 -1.93021,-0.0376 -3.9885,-1.21501 -4.7117,-2.69519 -24.16872,-12.61215 -28.48069,-14.51617 -3.71899,-1.64219 -4.84173,-1.8711 -9.18125,-1.87204 -5.40686,-0.001 -5.8653,0.10766 -9.38764,2.22969 -3.31712,1.99834 -6.53783,4.46272 -14.92838,11.42266 -3.12663,2.59353 -5.95862,4.88989 -6.2933,5.10303 -0.59248,0.3773 -0.60851,-0.21262 -0.60851,-22.42126 v -22.80877 l 3.53888,-1.87086 c 11.09046,-5.86312 23.43558,-15.12772 32.45082,-24.35325 1.23537,-1.26421 2.35635,-2.25785 2.49102,-2.2081 0.1347,0.0499 0.49304,0.53725 0.79638,1.0833 0.30333,0.54606 0.62545,0.94862 0.71581,0.89459 0.20989,-0.12551 -0.82566,-2.05535 -1.39572,-2.60101 -0.23802,-0.22785 -2.13026,-2.96873 -4.20496,-6.09089 -4.86964,-7.32812 -8.11736,-11.70426 -13.54513,-18.25135 -14.66005,-17.68327 -35.42681,-36.79966 -61.36485,-56.48805 l -4.78869,-3.63489 81.53922,-0.0495 c 44.84658,-0.0273 81.65871,0.0219 81.80473,0.10917 0.79386,0.47467 4.79658,14.03655 6.47726,21.94606 3.24288,15.26131 3.95834,24.21826 3.97068,49.7095 0.0101,21.86986 0.59812,69.33394 0.98985,79.96743 0.17915,4.86288 0.42325,11.42778 0.54243,14.58865 0.23907,6.34016 0.35834,5.99289 -1.86037,5.41587 z m -78.84869,-58.52452 c -0.28426,-0.56908 -0.29001,-0.57038 -0.31773,-0.0721 -0.0155,0.27916 0.0703,0.56651 0.19082,0.63857 0.38154,0.22813 0.42562,0.0315 0.12697,-0.56658 z m -0.40932,-3.18676 c -0.0813,-0.83958 -0.32824,-1.70165 -0.54878,-1.91567 -0.4106,-0.39849 -0.37627,0.11676 0.17372,2.60718 0.30295,1.37185 0.53363,0.94653 0.37506,-0.69151 z m 2.6922,-23.26925 c 0,-0.45704 -0.0987,-0.56975 -0.36125,-0.41275 -0.1987,0.11878 -0.26266,0.40173 -0.14223,0.62874 0.31376,0.5911 0.50341,0.50972 0.50341,-0.21599 z m -3.77873,-15.37413 c 0.82276,-1.38675 1.43937,-2.55516 1.37026,-2.59647 -0.0691,-0.0413 -0.7615,1.00995 -1.5386,2.33617 -1.8469,3.15191 -1.77539,3.01728 -1.53577,2.8912 0.11451,-0.0603 0.88137,-1.24416 1.70411,-2.6309 z"
   id="path4075"
   inkscape:connector-curvature="0" /><path
   style="fill:#803300;stroke-width:0.25409657"
   d="m 429.43487,295.06649 c -41.75324,-11.05419 -42.72781,-11.29708 -44.52169,-11.09585 -0.89796,0.10075 -1.23254,-0.008 -2.81225,-0.92158 -4.27214,-2.46814 -22.73096,-11.91516 -27.83237,-14.24429 -4.63036,-2.11407 -5.40601,-2.29508 -10.16514,-2.3722 -3.45331,-0.0559 -4.20658,-0.0101 -5.50445,0.33287 -3.18777,0.8431 -7.09355,3.56624 -18.07413,12.60141 -3.74296,3.07984 -7.01704,5.72916 -7.27571,5.88739 -0.40808,0.24963 -0.47032,-2.72991 -0.47032,-22.51525 v -22.80296 l 3.81636,-2.04477 c 11.07109,-5.9318 22.47676,-14.46914 31.65565,-23.69479 1.5256,-1.53337 2.88174,-2.74806 3.01368,-2.6993 0.13195,0.0489 0.48807,0.53541 0.79141,1.08146 0.30333,0.54606 0.61777,0.9532 0.69874,0.90478 0.17956,-0.10732 -1.14643,-2.50766 -1.54501,-2.7968 -0.1568,-0.11372 -1.53694,-2.10313 -3.06681,-4.42078 -6.42465,-9.73288 -10.89391,-15.6389 -18.09934,-23.9178 -14.27035,-16.39631 -33.98314,-34.23281 -57.80851,-52.30611 l -4.79173,-3.63489 81.55378,-0.0495 c 44.85459,-0.0273 81.67892,0.0253 81.83188,0.11676 0.86343,0.51626 4.80966,14.03008 6.63588,22.72444 3.04498,14.49677 3.78767,23.77364 3.79874,47.44997 0.004,7.94271 0.15423,27.17321 0.33439,42.73444 0.29496,25.4702 0.45456,32.53172 1.2002,53.09877 0.18298,5.04747 0.1455,5.9428 -0.24817,5.93878 -0.25502,-0.003 -6.1568,-1.51201 -13.11508,-3.35421 z m -67.47575,-55.63424 c -0.0912,-0.13512 -0.1657,-0.0246 -0.1657,0.24561 0,0.27016 0.0746,0.38068 0.1657,0.2456 0.0912,-0.13512 0.0912,-0.35612 0,-0.49121 z m -0.37611,-3.82244 c -0.11895,-0.56883 -0.36946,-1.0909 -0.55687,-1.16016 -0.21903,-0.0809 -0.27682,0.0758 -0.16178,0.43898 0.0984,0.3107 0.29205,1.09541 0.43028,1.74379 0.18228,0.85512 0.28605,1.01859 0.37789,0.59526 0.0696,-0.321 0.0293,-1.04903 -0.0894,-1.61787 z m 2.78735,-22.39783 c 0,-0.3649 -0.10588,-0.46715 -0.33938,-0.32758 -0.18665,0.1117 -0.24478,0.35033 -0.12921,0.53049 0.30439,0.4743 0.46852,0.4032 0.46852,-0.20291 z m -4.46027,-14.402 c 0.15268,-0.34138 0.12681,-0.40131 -0.0848,-0.19647 -0.16743,0.16207 -0.40344,0.51575 -0.5243,0.78592 -0.15268,0.34136 -0.12681,0.40129 0.0848,0.19647 0.16741,-0.16207 0.40342,-0.51577 0.52429,-0.78592 z m 1.64305,-2.75072 c 0.15269,-0.34138 0.12682,-0.40131 -0.0848,-0.19647 -0.16742,0.16207 -0.40343,0.51575 -0.5243,0.78592 -0.15268,0.34136 -0.12681,0.40131 0.0848,0.19647 0.16743,-0.16207 0.40343,-0.51577 0.52431,-0.78592 z"
   id="path4077"
   inkscape:connector-curvature="0" /><path
   style="fill:#803300;stroke-width:0.25409657"
   d="m 441.42907,298.23855 c -0.36146,-0.0891 -10.86052,-2.85817 -23.33121,-6.15353 -31.98858,-8.45291 -31.26506,-8.27778 -33.36935,-8.07661 -0.78449,0.075 -1.29886,0.0465 -1.29886,-0.0719 0,-0.54404 -26.08394,-13.89857 -31.51968,-16.13755 -2.91295,-1.19982 -4.76507,-1.47024 -9.37155,-1.36829 -2.88367,0.0639 -3.51331,0.1427 -4.83279,0.60499 -2.8984,1.01561 -6.97905,3.96658 -17.92271,12.961 -3.52141,2.89417 -6.53791,5.31216 -6.70332,5.3733 -0.18131,0.067 -0.30079,-8.93532 -0.30079,-22.66323 v -22.77437 l 4.19246,-2.27427 c 10.97097,-5.95141 21.84776,-14.10331 31.14394,-23.34164 1.56807,-1.55834 2.9064,-2.86832 2.97406,-2.9111 0.0677,-0.0428 0.42209,0.31091 0.78763,0.78593 0.36553,0.47503 0.57647,0.64263 0.46877,0.37248 -0.10779,-0.27017 -0.61915,-1.06591 -1.13651,-1.76832 -0.51736,-0.70241 -2.62652,-3.79697 -4.68706,-6.87681 -5.02008,-7.50344 -7.33521,-10.59344 -13.24889,-17.68322 -11.09855,-13.30579 -23.59011,-25.57991 -40.49126,-39.78636 -5.22296,-4.39021 -15.34174,-12.45219 -21.20929,-16.89817 l -4.14886,-3.14367 81.56351,-0.0495 c 45.13659,-0.0273 81.68957,0.0258 81.84577,0.11928 0.15526,0.0928 0.78649,1.63162 1.4028,3.41953 4.06902,11.80453 7.32171,27.40185 8.34817,40.03109 0.50633,6.22993 0.66297,14.65028 0.85351,45.87813 0.19399,31.79804 0.65622,60.13011 1.14436,70.14341 0.17386,3.56611 0.3183,7.83219 0.32099,9.48017 0.005,3.14669 -0.006,3.17083 -1.47384,2.80945 z m -79.46309,-58.79402 c -0.10487,-0.15668 -0.18279,-0.11018 -0.19855,0.11878 -0.0137,0.20712 0.0634,0.32317 0.17261,0.25789 0.10918,-0.0652 0.12085,-0.23476 0.0259,-0.3766 z m -0.33953,-3.31814 c -0.11476,-0.65655 -0.36409,-1.34178 -0.55401,-1.52272 -0.27464,-0.26163 -0.3131,-0.2083 -0.18791,0.26043 0.0866,0.32418 0.24998,1.00941 0.36305,1.52272 0.30052,1.36433 0.62403,1.14196 0.37887,-0.26043 z m 2.63293,-23.21896 c -0.0912,-0.13512 -0.16571,-0.0246 -0.16571,0.2456 0,0.27015 0.0746,0.38069 0.16571,0.24561 0.0912,-0.13512 0.0912,-0.35613 0,-0.49121 z"
   id="path4079"
   inkscape:connector-curvature="0" /><path
   style="fill:#803300;stroke-width:0.25409657"
   d="m 441.42907,298.23988 c -0.36146,-0.0883 -9.60358,-2.52522 -20.53802,-5.41527 -32.54039,-8.60065 -34.29516,-9.02962 -36.08391,-8.82129 -0.73074,0.0851 -1.19885,-0.0755 -2.69192,-0.92302 -4.3525,-2.47095 -19.50115,-10.25689 -26.28868,-13.51156 -2.07844,-0.99663 -4.73756,-2.0954 -5.90913,-2.4417 -2.06782,-0.61123 -2.25518,-0.62961 -6.40787,-0.6289 -3.56291,5.7e-4 -4.46992,0.0627 -5.42787,0.37098 -2.81991,0.90787 -7.71421,4.42128 -18.23093,13.08718 -3.21302,2.64756 -6.11863,4.98813 -6.45689,5.20127 -0.60115,0.37875 -0.615,-0.12653 -0.61401,-22.39875 l 0.001,-22.78625 4.18872,-2.35047 c 12.35192,-6.93121 23.19545,-15.12203 31.96906,-24.14829 1.8716,-1.92549 2.11815,-2.10032 2.51001,-1.77988 0.239,0.19543 0.43457,0.44158 0.43457,0.54701 0,0.10546 0.0892,0.13832 0.19808,0.0733 0.10906,-0.0652 -0.17496,-0.58995 -0.63094,-1.16625 -0.45597,-0.57629 -1.93475,-2.73322 -3.28618,-4.79317 -1.35141,-2.05994 -3.64202,-5.41808 -5.09024,-7.4625 -15.4469,-21.80617 -38.64972,-44.33214 -71.02026,-68.94856 l -4.65069,-3.53664 81.57394,-0.0495 c 44.86565,-0.0273 81.69143,0.0207 81.83507,0.10664 0.6905,0.41285 3.61393,9.79358 5.49303,17.62607 1.59014,6.62799 2.43031,11.01898 3.30836,17.29025 1.45042,10.35939 1.40656,8.82451 2.00169,70.0452 0.30533,31.41052 0.47502,40.15926 1.17081,60.36852 0.24497,7.11529 0.30065,6.85078 -1.3568,6.44566 z m -79.84204,-62.24603 c -0.12669,-0.62136 -0.34052,-1.19884 -0.47538,-1.28328 -0.23601,-0.14776 -0.18242,0.42432 0.16622,1.77449 0.28636,1.1091 0.54997,0.69036 0.30923,-0.49121 z"
   id="path4081"
   inkscape:connector-curvature="0" /><path
   style="fill:#803300;stroke-width:0.25409657"
   d="m 418.91939,292.33182 c -28.23915,-7.48814 -31.32762,-8.24945 -33.46667,-8.24945 -1.55717,0 -1.71191,-0.0534 -4.20228,-1.45096 -5.45495,-3.06119 -22.92454,-11.95443 -27.73855,-14.12088 -3.45799,-1.55618 -5.01598,-1.92672 -8.64022,-2.05495 -4.13273,-0.14624 -6.31572,0.15163 -8.40635,1.1469 -2.81776,1.34145 -6.01395,3.75772 -20.40041,15.42234 l -3.12179,2.53116 -0.0834,-22.76254 -0.0837,-22.76256 6.16695,-3.58956 c 11.49453,-6.69054 19.82904,-12.98785 28.49612,-21.53075 1.91258,-1.88519 3.58402,-3.39971 3.71431,-3.36557 0.13025,0.034 0.4165,0.25515 0.63601,0.49119 0.68166,0.73297 0.46146,0.19745 -0.36645,-0.89125 -0.43388,-0.57055 -2.4467,-3.51301 -4.47294,-6.5388 -4.89545,-7.31037 -7.72689,-11.12476 -12.98047,-17.48672 -14.97209,-18.13084 -35.85256,-37.41123 -61.89561,-57.15251 -2.29782,-1.7418 -4.29127,-3.27743 -4.42989,-3.41251 -0.20135,-0.19622 16.19223,-0.2456 81.54597,-0.2456 H 430.988 l 1.0306,2.89808 c 3.52162,9.90289 6.54413,23.20724 8.09038,35.61204 0.8428,6.76125 1.13349,18.45628 1.50178,60.41765 0.19443,22.15313 0.48258,44.43398 0.64035,49.513 0.15765,5.07901 0.39367,12.48386 0.52425,16.45522 0.23118,7.02962 0.22084,7.22014 -0.39015,7.20183 -0.34518,-0.0101 -10.90483,-2.744 -23.46589,-6.0748 z m -57.46355,-56.60265 c -0.23868,-0.85968 -0.30118,-0.93078 -0.32864,-0.37388 -0.035,0.71004 0.27208,1.64547 0.49625,1.51145 0.0699,-0.0418 -0.005,-0.55372 -0.1676,-1.13757 z"
   id="path4083"
   inkscape:connector-curvature="0" /><path
   style="fill:#803300;stroke-width:0.25409657"
   d="m 422.53408,293.29682 c -32.86849,-8.71475 -34.89277,-9.21445 -37.32854,-9.21445 -1.2881,0 -1.61083,-0.11439 -3.8097,-1.35146 -4.71806,-2.65417 -18.14292,-9.5499 -25.12053,-12.90327 -4.85863,-2.33499 -6.76772,-2.99975 -9.35425,-3.25721 -3.01283,-0.2999 -7.15069,-0.0969 -8.89951,0.43652 -2.8271,0.86236 -6.50964,3.48101 -17.58556,12.50513 -3.87812,3.15968 -7.18748,5.79528 -7.35415,5.85688 -0.18428,0.0681 -0.30303,-8.78396 -0.30303,-22.59222 v -22.70416 l 7.33178,-4.37257 c 11.77722,-7.02376 19.85235,-13.2375 28.49726,-21.92834 2.16524,-2.17675 2.45834,-2.3905 2.84467,-2.07461 0.2369,0.19372 0.43072,0.43845 0.43072,0.54388 0,0.10546 0.0804,0.14371 0.17844,0.0849 0.0981,-0.0588 -0.18202,-0.58181 -0.62255,-1.16252 -0.44054,-0.58068 -2.49739,-3.57568 -4.57078,-6.6555 -4.88721,-7.25948 -7.92952,-11.35392 -12.92029,-17.3885 -14.98112,-18.11443 -35.11631,-36.7343 -61.34899,-56.73204 -2.58823,-1.97305 -4.81862,-3.69789 -4.95643,-3.83296 -0.20021,-0.19624 16.19238,-0.2456 81.53714,-0.2456 h 81.78774 l 0.69546,1.81743 c 3.44166,8.99394 7.12774,25.21781 8.60449,37.87155 0.69093,5.92025 0.99805,19.16717 1.33701,57.66695 0.31917,36.25054 0.47886,45.39577 1.17756,67.44181 0.22588,7.12686 0.2155,7.31846 -0.39619,7.30305 -0.34549,-0.008 -9.27878,-2.30945 -19.85177,-5.11277 z m -61.12187,-57.54856 c -0.20441,-0.73567 -0.25258,-0.7796 -0.2868,-0.26168 -0.0375,0.56762 0.25266,1.3426 0.45057,1.20343 0.045,-0.0317 -0.0287,-0.45546 -0.16383,-0.94175 z"
   id="path4085"
   inkscape:connector-curvature="0" /><path
   style="fill:#803300;stroke-width:0.25409657"
   d="m 418.78217,292.31863 c -27.90407,-7.38106 -30.62354,-8.05225 -33.18816,-8.19129 -1.88146,-0.1021 -2.04912,-0.15803 -4.27938,-1.42992 -4.76073,-2.71497 -22.69176,-11.84301 -27.46074,-13.97926 -3.24984,-1.45575 -4.7459,-1.89759 -7.26911,-2.14692 -2.62638,-0.2595 -6.59559,-0.0639 -8.40373,0.41436 -2.70337,0.71488 -6.37392,3.32032 -18.20044,12.91903 -3.62648,2.94336 -6.73044,5.40212 -6.89769,5.46392 -0.18573,0.0687 -0.30411,-8.7281 -0.30411,-22.59787 v -22.71027 l 6.83503,-4.07177 c 3.75929,-2.23946 8.2873,-5.08854 10.06229,-6.33127 6.33826,-4.43767 13.41715,-10.38441 18.9647,-15.93164 2.20169,-2.20156 2.41676,-2.35345 2.8559,-2.01709 0.59402,0.45498 0.86744,0.88564 -3.82309,-6.02185 -6.00973,-8.85023 -8.59416,-12.30708 -14.39559,-19.25506 -15.43742,-18.48838 -33.63836,-35.28507 -60.89123,-56.19332 l -4.99399,-3.83138 81.73236,-0.0495 c 44.95279,-0.0273 81.78159,-0.02 81.84177,0.0152 0.26447,0.1582 2.23754,6.15345 3.56664,10.83749 2.69858,9.51028 4.54415,18.74223 5.73523,28.68863 0.64659,5.39953 0.96784,16.86208 1.15645,41.26084 0.25529,33.02722 0.77325,67.39602 1.1578,76.82376 0.17189,4.21449 0.31529,9.18789 0.31864,11.05199 0.005,3.10385 -0.0424,3.38806 -0.56896,3.37457 -0.31629,-0.008 -10.91407,-2.74952 -23.55059,-6.09208 z m -57.47016,-56.91047 c -0.0833,-0.19117 -0.15698,-0.0822 -0.16366,0.24186 -0.006,0.32418 0.0615,0.4806 0.15149,0.34757 0.0899,-0.1331 0.0955,-0.39826 0.0114,-0.58943 z"
   id="path4087"
   inkscape:connector-curvature="0" /><path
   style="fill:#803300;stroke-width:0.25409657"
   d="m 422.86269,293.39962 c -32.8574,-8.69227 -35.39857,-9.31725 -37.88437,-9.31725 -1.14393,0 -1.54624,-0.14556 -3.47498,-1.25758 -3.10773,-1.79171 -10.16438,-5.45609 -19.10463,-9.92063 -9.05555,-4.52211 -10.45628,-5.15174 -13.02668,-5.85539 -1.71427,-0.46928 -2.32073,-0.52723 -5.5397,-0.52922 -2.19116,-10e-4 -4.13234,0.10277 -4.92912,0.26462 -2.82218,0.57301 -7.10776,3.5395 -18.66565,12.92039 -3.75712,3.04945 -6.97234,5.59663 -7.14493,5.66042 -0.19866,0.0733 -0.31382,-8.21827 -0.31382,-22.59501 V 240.059 l 6.65533,-3.97283 c 12.02072,-7.1756 19.79523,-13.11046 28.81891,-21.99963 2.03166,-2.00137 2.8456,-2.65009 3.1411,-2.50345 0.44932,0.22298 -7.71777,-11.83414 -11.1808,-16.50623 -3.13767,-4.23317 -11.22689,-13.84119 -15.75048,-18.70775 -13.51603,-14.54079 -30.02649,-29.1904 -51.3261,-45.54127 -2.8858,-2.21532 -5.35891,-4.13836 -5.49582,-4.27344 -0.19886,-0.19622 16.19887,-0.2456 81.55837,-0.2456 h 81.80727 l 0.54062,1.42447 c 2.62153,6.90751 5.73681,19.0985 7.39323,28.93172 2.03035,12.05318 2.22755,16.82853 2.66145,64.44549 0.31684,34.76912 0.53637,47.6519 1.18771,69.70135 0.21908,7.41617 0.20862,7.61324 -0.4035,7.59998 -0.34563,-0.007 -9.13116,-2.26297 -19.52341,-5.01219 z m -61.55394,-57.88468 c -0.10487,-0.15668 -0.18276,-0.11019 -0.19852,0.11877 -0.0137,0.20711 0.0634,0.32317 0.17258,0.25787 0.10918,-0.0652 0.12085,-0.23475 0.0259,-0.37657 z"
   id="path4089"
   inkscape:connector-curvature="0" /><path
   style="fill:#803300;stroke-width:0.25409657"
   d="m 419.08369,292.41648 c -27.10189,-7.15077 -31.06241,-8.12688 -33.59427,-8.27966 -1.82707,-0.11018 -1.99584,-0.17101 -4.67816,-1.68447 -1.53049,-0.86355 -6.26246,-3.35509 -10.51549,-5.53675 -14.90671,-7.64669 -19.37668,-9.69674 -22.09852,-10.13496 -1.73801,-0.27981 -7.38623,-0.26882 -9.17935,0.0179 -2.8088,0.4491 -6.90357,3.30883 -20.98135,14.65306 l -5.09343,4.1044 -0.0834,-22.76982 -0.0837,-22.76983 6.2884,-3.75499 c 3.45862,-2.06526 7.91548,-4.86021 9.90413,-6.21101 6.37076,-4.32739 13.53923,-10.29249 19.7717,-16.45265 1.22856,-1.21431 2.36608,-2.15895 2.52781,-2.09918 0.32033,0.11844 0.18224,-0.10058 -3.72477,-5.90435 -6.1046,-9.06833 -10.25203,-14.55191 -16.42501,-21.71666 -15.01894,-17.4319 -33.12975,-33.95511 -58.90062,-53.73733 l -4.86324,-3.73312 81.75155,-0.0495 c 44.96335,-0.0273 81.8064,-0.0168 81.87347,0.0234 0.067,0.0401 0.49382,1.12279 0.94838,2.40595 3.22108,9.09295 6.34153,22.25847 7.84165,33.08485 1.28939,9.30527 1.42152,13.5308 1.84011,58.84581 0.30113,32.59696 0.55819,47.77154 1.18411,69.89783 0.21524,7.60904 0.20475,7.80975 -0.40755,7.79684 -0.34567,-0.007 -10.83178,-2.70535 -23.30247,-5.99571 z"
   id="path4091"
   inkscape:connector-curvature="0" /><path
   style="fill:#803300;stroke-width:0.25409657"
   d="m 440.27894,297.99232 c -7.32395,-1.98119 -45.66783,-11.9906 -48.80765,-12.74093 -2.29215,-0.54775 -4.86744,-1.02052 -5.9574,-1.09367 -1.78705,-0.11996 -2.06775,-0.21262 -4.05587,-1.33923 -5.43149,-3.07789 -24.66897,-12.82516 -28.67927,-14.53126 -3.29634,-1.40237 -4.83408,-1.69158 -8.99397,-1.69158 -4.95961,0 -5.69721,0.1711 -8.84554,2.05198 -2.93191,1.7516 -6.3813,4.36046 -15.08198,11.40691 -3.2024,2.59353 -6.10512,4.88989 -6.45049,5.10303 -0.61831,0.38155 -0.62796,0.0379 -0.62796,-22.38074 v -22.76822 l 7.64416,-4.63531 c 12.11594,-7.34691 18.14108,-11.96298 27.83225,-21.32324 l 2.99935,-2.89694 -2.84696,-4.25588 c -6.31966,-9.44714 -11.40544,-16.20297 -17.47721,-23.21623 -15.13943,-17.48699 -32.75965,-33.56637 -58.30839,-53.20952 -2.85514,-2.19517 -5.19118,-4.0298 -5.19118,-4.07696 0,-0.0472 36.80735,-0.0858 81.7941,-0.0858 h 81.7941 l 0.70031,1.81745 c 2.37672,6.1681 5.54858,18.63793 7.23418,28.44051 1.98594,11.54918 2.21618,16.93279 2.64268,61.793 0.31447,33.0739 0.58439,49.29001 1.19618,71.86263 0.25227,9.30736 0.48706,8.58158 -2.51344,7.76994 z"
   id="path4093"
   inkscape:connector-curvature="0" /><path
   style="fill:#803300;stroke-width:0.25409657"
   d="m 423.51989,293.59684 c -31.99701,-8.43437 -36.4041,-9.51447 -38.82217,-9.51447 -0.76847,0 -1.78313,-0.44833 -5.0232,-2.21961 -10.41206,-5.69199 -26.63423,-13.67348 -29.64475,-14.58554 -1.85226,-0.56114 -2.09434,-0.58333 -6.36175,-0.58333 -4.23357,0 -4.50552,0.0244 -5.95336,0.53328 -2.65317,0.93258 -6.93821,4.00407 -17.21014,12.33616 -3.39717,2.75564 -6.52522,5.22929 -6.95119,5.49699 l -0.77452,0.48673 v -22.76402 -22.76401 l 7.47584,-4.5493 c 12.24484,-7.4514 18.12112,-11.93801 27.65479,-21.11475 l 3.34405,-3.21886 -2.85831,-4.24739 c -6.75833,-10.04271 -11.75335,-16.6116 -18.63476,-24.50635 -14.49938,-16.63454 -32.21018,-32.726 -57.02006,-51.80657 -2.92023,-2.24587 -5.30953,-4.12471 -5.30953,-4.1752 0,-0.0505 36.80735,-0.0918 81.7941,-0.0918 h 81.7941 l 0.66165,1.71919 c 3.40417,8.84513 7.0303,24.67771 8.58373,37.4786 0.69008,5.68649 0.99435,17.50905 1.32993,51.67428 0.31771,32.34768 0.62183,50.80808 1.20009,72.84503 0.21489,8.18923 0.20467,8.39926 -0.40817,8.38895 -0.34572,-0.007 -8.83558,-2.17391 -18.86637,-4.81802 z"
   id="path4095"
   inkscape:connector-curvature="0" /><g
   transform="matrix(1.061826,0,0,0.55870656,232.27019,416.39423)"
   id="g8"
   style="fill:#ffffff"><g
     id="g6"
     style="fill:#ffffff"><path
       inkscape:connector-curvature="0"
       style="fill:#ffffff"
       d="m 31.002,22.26 c 0.338,0.111 0.115,-0.545 -0.498,-1.465 l -0.371,-0.559 c -0.612,-0.919 -0.871,-1.638 -0.579,-1.606 0.293,0.032 -0.009,-0.39 -0.673,-0.943 -0.664,-0.553 -0.996,-1.044 -0.743,-1.096 0.253,-0.052 -0.362,-0.454 -1.367,-0.912 -1.921,-0.875 -3.76,-1.842 -4.983,-3.473 -0.35,-0.514 -0.455,-0.957 -0.387,-1.351 0.136,-0.784 0.891,-1.029 1.021,-0.853 l 0.237,0.318 c 0.469,0.742 1.266,1.311 2.946,1.416 1.095,0.096 1.772,0.721 2.405,1.412 0.311,0.299 0.621,0.502 0.933,0.59 0.593,0.169 0.886,-0.278 0.657,-0.414 -0.229,-0.137 -1.059,-0.464 -0.811,-0.954 0.248,-0.49 0.842,-1.129 0.887,-1.602 C 29.72,10.294 29.004,9.885 28.692,9.637 L 28.126,9.189 C 27.93,9.062 27.732,8.99 27.536,8.956 27.188,8.895 26.739,8.639 26.368,8.464 25.997,8.29 25.139,8.245 25.187,7.92 c 0.015,-0.104 0.216,-0.208 0.487,-0.312 0.65,-0.201 1.304,-0.168 1.957,0.189 0.539,0.347 1.287,0.456 2.07,0.579 1.092,0.171 2.185,0.398 2.399,0.177 0.215,-0.221 0.291,-1.156 0.291,-2.002 0,-0.846 -0.894,-1.275 -1.988,-1.424 C 28.127,4.818 27.617,2.796 26.588,1.394 25.934,0.504 25.224,0.898 24.689,1.073 24.469,1.145 24.15,1.038 23.745,0.775 23.454,0.552 23.165,0.334 22.876,0.151 22.377,-0.165 22.682,0.786 21.922,1.004 21.163,1.222 20.359,0.024 19.838,0.001 c -0.521,-0.023 -0.229,0.302 0.109,0.857 0.232,0.381 0.103,0.79 -0.518,0.626 -0.602,-0.11 -1.142,-0.087 -1.631,0.044 -0.877,0.236 -1.1,0.807 -0.69,0.84 0.41,0.032 1.312,0.102 1.587,0.605 0.172,0.314 0.026,0.62 -0.56,0.513 -0.383,-0.041 -0.68,0.024 -0.918,0.162 -0.454,0.262 -0.073,0.282 0.409,0.624 0.194,0.138 0.125,0.457 -0.283,0.923 -5.099,5.821 3.095,10.341 5.379,16.077 0.409,1.026 0.057,1.155 -0.558,0.237 -5.772,-8.608 -12.18,-10.066 -19.096,-5.798 -0.94,0.58 -0.77,0.986 0.329,0.868 0.975,-0.105 1.951,-0.142 2.927,0.058 1.089,0.323 2.048,0.688 1.256,1.17 -1.92,1.131 -4.122,2.25 -4.974,3.433 -0.646,0.896 -0.271,0.783 0.55,0.044 0.76,-0.684 2.127,-1.115 3.77,-1.432 1.085,-0.209 2.38,-0.538 2.924,-0.57 0.428,-0.025 0.533,0.201 0.336,0.662 -0.273,0.608 -0.516,1.217 -0.737,1.826 -0.372,1.022 0.03,1.253 0.94,0.626 10.759,-7.406 16.723,12.156 7.102,7.268 -0.985,-0.5 -1.319,-0.205 -0.589,0.623 4.049,4.602 10.501,-0.012 9.276,-8.461 -0.159,-1.093 0.056,-1.184 0.451,-0.152 1.35,3.517 0.865,7.063 -0.905,9.981 -0.972,1.945 -6.745,5.241 -2.324,10.175 0.737,0.823 0.97,0.618 0.438,-0.351 -1.146,-2.088 -1.571,-3.902 1.215,-5.856 2.076,-1.232 4.244,-3.943 5.098,-8.238 0.217,-1.082 0.779,-1.207 1.027,-0.131 0.162,0.705 0.24,1.455 0.295,2.215 0.08,1.103 0.229,1.103 0.244,-0.002 0.027,-1.818 -0.152,-3.655 -0.676,-5.52 -0.298,-1.062 -0.376,-1.798 -0.039,-1.687 z M 24.771,2.568 c 0.46,0 0.833,0.373 0.833,0.833 0,0.46 -0.373,0.833 -0.833,0.833 -0.46,0 -0.833,-0.373 -0.833,-0.833 -10e-4,-0.46 0.372,-0.833 0.833,-0.833 z"
       id="path2" /><path
       inkscape:connector-curvature="0"
       style="fill:#ffffff"
       d="M 39.125,14.646 C 38.865,14.586 38.631,14.509 38.432,14.424 37.416,13.989 38.039,13.023 37.336,12.17 37.281,12.104 37.229,12.037 37.176,11.969 36.5,11.097 35.67,11.591 34.793,10.92 34.666,10.823 34.535,10.706 34.402,10.575 33.615,9.801 32.48,9.883 31.385,9.739 31.107,9.702 30.809,9.645 30.501,9.579 c -1.08,-0.232 -1.227,0.096 -0.291,0.683 0.793,0.498 1.595,0.996 2.141,1.475 0.83,0.729 0.885,1.938 1.418,1.637 0.533,-0.301 1.384,-0.322 2.07,0.543 0.847,1.067 1.863,2.241 3.539,1.744 1.06,-0.315 0.826,-0.767 -0.253,-1.015 z"
       id="path4" /></g></g></svg>